<svg width="34" height="34" viewBox="0 0 34 34" fill="none" xmlns="http://www.w3.org/2000/svg">
<path d="M17 32C25.2843 32 32 25.2843 32 17C32 8.71573 25.2843 2 17 2C8.71573 2 2 8.71573 2 17C2 25.2843 8.71573 32 17 32Z" stroke="#9774DC" stroke-width="3" stroke-linecap="round" stroke-linejoin="round"/>
<path d="M19.75 9.95C19.75 9.52996 19.75 9.31994 19.6683 9.15951C19.5964 9.01839 19.4816 8.90365 19.3405 8.83175C19.1801 8.75 18.97 8.75 18.55 8.75H15.45C15.03 8.75 14.8199 8.75 14.6595 8.83175C14.5184 8.90365 14.4037 9.01839 14.3317 9.15951C14.25 9.31994 14.25 9.52996 14.25 9.95V13.05C14.25 13.47 14.25 13.6801 14.1683 13.8405C14.0964 13.9816 13.9816 14.0964 13.8405 14.1683C13.6801 14.25 13.47 14.25 13.05 14.25H9.95C9.52996 14.25 9.31994 14.25 9.15951 14.3317C9.01839 14.4036 8.90365 14.5184 8.83175 14.6595C8.75 14.8199 8.75 15.03 8.75 15.45V18.55C8.75 18.97 8.75 19.1801 8.83175 19.3405C8.90365 19.4816 9.01839 19.5964 9.15951 19.6683C9.31994 19.75 9.52996 19.75 9.95 19.75H13.05C13.47 19.75 13.6801 19.75 13.8405 19.8317C13.9816 19.9036 14.0964 20.0184 14.1683 20.1595C14.25 20.3199 14.25 20.53 14.25 20.95V24.05C14.25 24.47 14.25 24.6801 14.3317 24.8405C14.4037 24.9816 14.5184 25.0963 14.6595 25.1683C14.8199 25.25 15.03 25.25 15.45 25.25H18.55C18.97 25.25 19.1801 25.25 19.3405 25.1683C19.4816 25.0963 19.5964 24.9816 19.6683 24.8405C19.75 24.6801 19.75 24.47 19.75 24.05V20.95C19.75 20.53 19.75 20.3199 19.8317 20.1595C19.9036 20.0184 20.0184 19.9036 20.1595 19.8317C20.3199 19.75 20.53 19.75 20.95 19.75H24.05C24.47 19.75 24.6801 19.75 24.8405 19.6683C24.9816 19.5964 25.0963 19.4816 25.1683 19.3405C25.25 19.1801 25.25 18.97 25.25 18.55V15.45C25.25 15.03 25.25 14.8199 25.1683 14.6595C25.0963 14.5184 24.9816 14.4037 24.8405 14.3317C24.6801 14.25 24.47 14.25 24.05 14.25H20.95C20.53 14.25 20.3199 14.25 20.1595 14.1683C20.0184 14.0964 19.9036 13.9816 19.8317 13.8405C19.75 13.6801 19.75 13.47 19.75 13.05V9.95Z" stroke="#9774DC" stroke-width="3" stroke-linecap="round" stroke-linejoin="round"/>
</svg>
