<svg width="34" height="30" viewBox="0 0 34 30" fill="none" xmlns="http://www.w3.org/2000/svg">
<path d="M11 28.5V7.5C11 6.10504 11 5.40756 11.1533 4.83531C11.5694 3.2824 12.7824 2.06944 14.3353 1.65333C14.9076 1.5 15.605 1.5 17 1.5C18.395 1.5 19.0924 1.5 19.6647 1.65333C21.2176 2.06944 22.4306 3.2824 22.8467 4.83531C23 5.40756 23 6.10504 23 7.5V17.25M23 23.25V28.5M9.2 28.5H24.8C27.3202 28.5 28.5804 28.5 29.543 28.0095C30.3897 27.5781 31.0781 26.8897 31.5095 26.043C32 25.0804 32 23.8202 32 21.3V14.7C32 12.1798 32 10.9196 31.5095 9.95704C31.0781 9.11031 30.3897 8.4219 29.543 7.99047C28.5804 7.5 27.3202 7.5 24.8 7.5H9.2C6.67976 7.5 5.41965 7.5 4.45704 7.99047C3.61031 8.4219 2.9219 9.11031 2.49047 9.95704C2 10.9196 2 12.1798 2 14.7V21.3C2 23.8202 2 25.0804 2.49047 26.043C2.9219 26.8897 3.61031 27.5781 4.45704 28.0095C5.41965 28.5 6.67976 28.5 9.2 28.5ZM18.2 23.25H25.55C25.97 23.25 26.1801 23.25 26.3405 23.1683C26.4816 23.0963 26.5963 22.9816 26.6683 22.8405C26.75 22.6801 26.75 22.47 26.75 22.05V18.45C26.75 18.03 26.75 17.8199 26.6683 17.6595C26.5963 17.5184 26.4816 17.4037 26.3405 17.3317C26.1801 17.25 25.97 17.25 25.55 17.25H18.2C17.78 17.25 17.5699 17.25 17.4095 17.3317C17.2684 17.4037 17.1537 17.5184 17.0817 17.6595C17 17.8199 17 18.03 17 18.45V22.05C17 22.47 17 22.6801 17.0817 22.8405C17.1537 22.9816 17.2684 23.0963 17.4095 23.1683C17.5699 23.25 17.78 23.25 18.2 23.25Z" stroke="#9774DC" stroke-width="3" stroke-linecap="round" stroke-linejoin="round"/>
</svg>
