<svg width="36" height="36" viewBox="0 0 36 36" fill="none" xmlns="http://www.w3.org/2000/svg">
<path d="M34.0875 16.3512H32.85V12.6387C32.85 11.0918 31.5094 9.75117 29.9625 9.75117H28.3125C28.1578 9.75117 28.0031 9.80273 27.9 9.80273V9.33867C27.9 7.7918 26.5594 6.45117 25.0125 6.45117H23.3625C21.7641 6.45117 20.475 7.7918 20.475 9.33867V16.3512H15.525V9.33867C15.525 7.7918 14.1844 6.45117 12.6375 6.45117H10.9875C9.38906 6.45117 8.1 7.7918 8.1 9.33867V9.80273C7.94531 9.80273 7.79063 9.75117 7.6875 9.75117H6.0375C4.43906 9.75117 3.15 11.0918 3.15 12.6387V16.3512H1.9125C1.65469 16.3512 1.5 16.5574 1.5 16.7637V19.2387C1.5 19.4965 1.65469 19.6512 1.9125 19.6512H3.15V23.3637C3.15 24.9621 4.43906 26.2512 6.0375 26.2512H7.6875C7.79063 26.2512 7.94531 26.2512 8.1 26.2512V26.6637C8.1 28.2621 9.38906 29.5512 10.9875 29.5512H12.6375C14.1844 29.5512 15.525 28.2621 15.525 26.6637V19.6512H20.475V26.6637C20.475 28.2621 21.7641 29.5512 23.3625 29.5512H25.0125C26.5594 29.5512 27.9 28.2621 27.9 26.6637V26.2512C28.0031 26.2512 28.1578 26.2512 28.3125 26.2512H29.9625C31.5094 26.2512 32.85 24.9621 32.85 23.3637V19.6512H34.0875C34.2938 19.6512 34.5 19.4965 34.5 19.2387V16.7637C34.5 16.5574 34.2938 16.3512 34.0875 16.3512ZM7.6875 23.7762H6.0375C5.77969 23.7762 5.625 23.6215 5.625 23.3637V12.6387C5.625 12.4324 5.77969 12.2262 6.0375 12.2262H7.6875C7.89375 12.2262 8.1 12.4324 8.1 12.6387V23.3637C8.1 23.6215 7.89375 23.7762 7.6875 23.7762ZM13.05 26.6637C13.05 26.9215 12.8438 27.0762 12.6375 27.0762H10.9875C10.7297 27.0762 10.575 26.9215 10.575 26.6637V9.33867C10.575 9.13242 10.7297 8.92617 10.9875 8.92617H12.6375C12.8438 8.92617 13.05 9.13242 13.05 9.33867V26.6637ZM25.425 26.6637C25.425 26.9215 25.2188 27.0762 25.0125 27.0762H23.3625C23.1047 27.0762 22.95 26.9215 22.95 26.6637V9.33867C22.95 9.13242 23.1047 8.92617 23.3625 8.92617H25.0125C25.2188 8.92617 25.425 9.13242 25.425 9.33867V26.6637ZM30.375 23.3637C30.375 23.6215 30.1687 23.7762 29.9625 23.7762H28.3125C28.0547 23.7762 27.9 23.6215 27.9 23.3637V12.6387C27.9 12.4324 28.0547 12.2262 28.3125 12.2262H29.9625C30.1687 12.2262 30.375 12.4324 30.375 12.6387V23.3637Z" fill="#9774DC"/>
</svg>
