<svg width="48" height="48" viewBox="0 0 48 48" fill="none" xmlns="http://www.w3.org/2000/svg">
<g clip-path="url(#clip0_189_66)">
<path d="M23.4768 7.6497C26.4723 7.25477 29.5241 7.58074 32.3531 8.59782C35.1822 9.61489 37.6982 11.2906 39.6712 13.4718L45.6328 8.58722C42.802 5.45766 39.192 3.05333 35.133 1.59405C31.0739 0.134758 26.6953 -0.33294 22.3974 0.233706C18.0995 0.800351 14.0193 2.38326 10.5299 4.83774C7.04058 7.29222 4.2533 10.54 2.42291 14.2841C0.592513 18.0282 -0.222603 22.1493 0.052073 26.2705C0.326749 30.3918 1.68245 34.3818 3.99526 37.8758C6.30806 41.3698 9.50418 44.2563 13.2914 46.2715C14.5804 46.9573 15.9238 47.5348 17.3063 48V39.8291C17.2475 39.7986 17.1888 39.7678 17.1302 39.7366C14.4906 38.3321 12.263 36.3203 10.6511 33.8851C9.03913 31.4499 8.09425 28.669 7.90281 25.7966C7.71136 22.9242 8.27948 20.0519 9.5552 17.4424C10.8309 14.8328 12.7736 12.5693 15.2056 10.8586C17.6376 9.14788 20.4813 8.04463 23.4768 7.6497Z" fill="white"/>
<path fill-rule="evenodd" clip-rule="evenodd" d="M48 29.9525L30.6955 29.9999L30.6729 22.5L47.9774 22.4525L48 29.9525Z" fill="white"/>
<path d="M40.9122 33.75C40.9122 33.3358 41.2645 33 41.699 33H47.2064C47.6409 33 47.9932 33.3358 47.9932 33.75V47.25C47.9932 47.6642 47.6409 48 47.2064 48H41.699C41.2645 48 40.9122 47.6642 40.9122 47.25V33.75Z" fill="#6941C6"/>
<path d="M30.6842 37.5C30.6842 37.0858 31.0364 36.75 31.471 36.75H36.9784C37.4129 36.75 37.7651 37.0858 37.7651 37.5V47.25C37.7651 47.6642 37.4129 48 36.9784 48H31.471C31.0364 48 30.6842 47.6642 30.6842 47.25V37.5Z" fill="#A47FE1"/>
<path d="M20.4561 41.25C20.4561 40.8358 20.8084 40.5 21.2429 40.5H26.7503C27.1848 40.5 27.5371 40.8358 27.5371 41.25V47.25C27.5371 47.6642 27.1848 48 26.7503 48H21.2429C20.8084 48 20.4561 47.6642 20.4561 47.25V41.25Z" fill="#D7BBFB"/>
</g>
<defs>
<clipPath id="clip0_189_66">
<rect width="48" height="48" fill="white"/>
</clipPath>
</defs>
</svg>
