<svg width="672" height="477" viewBox="0 0 672 477" fill="none" xmlns="http://www.w3.org/2000/svg">
<g clip-path="url(#clip0_2_275)">
<g style="mix-blend-mode:multiply">
<path d="M313.819 445.452C436.932 445.452 536.735 345.734 536.735 222.726C536.735 99.7179 436.932 0 313.819 0C190.707 0 90.9042 99.7179 90.9042 222.726C90.9042 345.734 190.707 445.452 313.819 445.452Z" fill="#E1E8F8"/>
</g>
<g style="mix-blend-mode:multiply">
<path d="M576.807 225.745C618.1 225.745 651.575 192.299 651.575 151.041C651.575 109.783 618.1 76.3363 576.807 76.3363C535.514 76.3363 502.039 109.783 502.039 151.041C502.039 192.299 535.514 225.745 576.807 225.745Z" fill="#E1E8F8"/>
</g>
<g style="mix-blend-mode:multiply">
<path d="M93.5105 161.851C99.4559 137.012 84.1226 112.06 59.2626 106.12C34.4026 100.179 9.42986 115.5 3.48444 140.339C-2.46098 165.178 12.8723 190.129 37.7323 196.069C62.5923 202.01 87.565 186.69 93.5105 161.851Z" fill="#E1E8F8"/>
</g>
<path fill-rule="evenodd" clip-rule="evenodd" d="M204.315 151.096H402.489C402.489 151.096 403.742 140.648 392.481 135.791C381.22 130.934 370.368 147.899 370.368 147.899C370.368 147.899 360.85 98.8533 312.893 91.3842C264.936 83.9015 254.328 146.334 254.328 146.334C254.328 146.334 252.463 138.022 247.302 138.675C242.142 139.328 239.378 148.552 239.378 148.552C239.378 148.552 219.075 130.947 204.315 151.096Z" fill="white"/>
<path fill-rule="evenodd" clip-rule="evenodd" d="M184.953 151.096H143.967C143.967 151.096 171.186 134.104 184.953 151.096Z" fill="white"/>
<path fill-rule="evenodd" clip-rule="evenodd" d="M114.692 67.9021L322.261 69.0449C322.261 69.0449 317.727 54.7733 296.063 65.8613C296.063 65.8613 289.35 29.7675 256.071 29.0056C222.793 28.2438 213.765 65.6165 213.765 65.6165C213.765 65.6165 205.432 55.1543 195.369 55.6713C185.307 56.1883 181.78 65.875 181.78 65.875C181.78 65.875 167.333 35.4544 147.208 33.4C127.083 31.3321 114.705 67.9157 114.705 67.9157L114.692 67.9021Z" fill="white"/>
<path fill-rule="evenodd" clip-rule="evenodd" d="M450.419 53.4407L449.289 30.1763L449.861 30.9517L450.719 53.4543L450.419 53.4407Z" fill="#9F597F"/>
<path fill-rule="evenodd" clip-rule="evenodd" d="M477.775 43.3322C477.775 43.3322 472.396 44.9784 468.652 45.1416C468.134 45.1688 467.658 45.1688 467.208 45.1416C463.859 44.8423 463.641 41.2506 461.898 39.7949C461.789 39.6997 461.68 39.6316 461.544 39.55C459.461 38.3256 449.984 41.4955 449.984 41.4955L449.262 30.2034C449.262 30.2034 456.628 28.8837 460.196 29.0062C461.027 29.0334 461.68 29.2375 462.211 29.564C463.981 30.598 464.485 32.802 465.711 33.5366C466.214 33.8495 467.522 33.9584 469.06 33.972C472.328 33.972 476.631 33.5366 476.631 33.5366L477.761 43.3458L477.775 43.3322Z" fill="#FF665B"/>
<g style="mix-blend-mode:multiply" opacity="0.8">
<path fill-rule="evenodd" clip-rule="evenodd" d="M469.088 33.9584L468.665 45.1416C468.148 45.1688 467.671 45.1688 467.222 45.1416C463.872 44.8423 463.655 41.2506 461.912 39.7949C462.007 36.4753 462.225 32.0673 462.238 29.564C464.009 30.5979 464.512 32.8019 465.738 33.5366C466.242 33.8495 467.549 33.9584 469.088 33.972V33.9584Z" fill="#DD8EA9"/>
</g>
<path fill-rule="evenodd" clip-rule="evenodd" d="M446.09 53.1416L446.322 249.991L491.392 258.045L518.53 97.4256L446.09 53.1416Z" fill="url(#paint0_linear_2_275)"/>
<path fill-rule="evenodd" clip-rule="evenodd" d="M555.839 440.269L532.459 106.337L494.715 130.771L403.334 207.87L399.726 230.822L555.839 440.269Z" fill="url(#paint1_linear_2_275)"/>
<path fill-rule="evenodd" clip-rule="evenodd" d="M35.785 421.726L41.1363 466.894L661.884 476.554L672.001 421.74L35.785 421.726Z" fill="url(#paint2_linear_2_275)"/>
<path fill-rule="evenodd" clip-rule="evenodd" d="M599.33 398.421L599.956 365.919H108.061L112.718 393.727L599.33 398.421Z" fill="url(#paint3_linear_2_275)"/>
<path fill-rule="evenodd" clip-rule="evenodd" d="M558.317 352.912L558.671 333.43L153.745 331.852L156.25 352.912H558.317Z" fill="url(#paint4_linear_2_275)"/>
<path fill-rule="evenodd" clip-rule="evenodd" d="M527.176 327.24L527.135 310.03L181.726 310.751L183.401 328.437L527.176 327.24Z" fill="url(#paint5_linear_2_275)"/>
<path fill-rule="evenodd" clip-rule="evenodd" d="M509.965 309.105V296.874L203.2 295.146L203.635 309.105H509.965Z" fill="url(#paint6_linear_2_275)"/>
<path fill-rule="evenodd" clip-rule="evenodd" d="M218.845 294.03L491.964 295.146V282.14L476.986 282.221V271.215L468.244 271.242L467.577 263.582L454.546 263.501L454.314 254.195H445.899L445.464 247.406L437.43 247.352L437.035 240.903L427.858 240.849V233.706H419.293L419.429 230.822V225.543L532.459 106.337L453.729 53.6586L446.09 53.1416L499.644 97.0447L290.903 233.706H284.136V239.978L275.966 239.937V246.263L267.496 246.195V254.195H257.053L257.284 262.29L246.772 262.222L246.854 271.949L233.905 271.99L234.3 283.473L218.477 283.554L218.845 294.03Z" fill="url(#paint7_linear_2_275)"/>
<path fill-rule="evenodd" clip-rule="evenodd" d="M672.001 421.74L599.33 398.421L112.718 393.727L35.785 421.726L672.001 421.74Z" fill="url(#paint8_linear_2_275)"/>
<path fill-rule="evenodd" clip-rule="evenodd" d="M108.061 365.919L156.413 352.912H558.317L599.956 365.919H108.061Z" fill="url(#paint9_linear_2_275)"/>
<path fill-rule="evenodd" clip-rule="evenodd" d="M153.745 331.852L185.58 328.383L527.176 327.24L558.671 333.43L153.745 331.852Z" fill="url(#paint10_linear_2_275)"/>
<path fill-rule="evenodd" clip-rule="evenodd" d="M509.965 296.874L491.964 295.146L218.899 294.03L203.2 295.146L509.965 296.874Z" fill="url(#paint11_linear_2_275)"/>
<path fill-rule="evenodd" clip-rule="evenodd" d="M218.477 283.554L234.286 282.031L476.986 280.385L491.964 282.14L218.477 283.554Z" fill="url(#paint12_linear_2_275)"/>
<path fill-rule="evenodd" clip-rule="evenodd" d="M527.135 310.03L509.965 308.002L200.395 309.104L181.726 310.751L527.135 310.03Z" fill="url(#paint13_linear_2_275)"/>
<g style="mix-blend-mode:multiply">
<path fill-rule="evenodd" clip-rule="evenodd" d="M40.5508 462.024L0.000932372 476.554H661.884L672.001 421.74L35.785 421.726L40.5508 462.024Z" fill="#BEA5BB"/>
</g>
<g style="mix-blend-mode:multiply">
<path fill-rule="evenodd" clip-rule="evenodd" d="M112.718 393.727L97.3995 399.291L599.33 398.421L599.956 365.919H108.061L112.718 393.727Z" fill="#BEA5BB"/>
</g>
<g style="mix-blend-mode:multiply" opacity="0.5">
<path fill-rule="evenodd" clip-rule="evenodd" d="M558.317 352.912L146.514 355.579L156.25 352.912L153.744 331.852L558.671 333.43L558.317 352.912Z" fill="#BEA5BB"/>
</g>
<g style="mix-blend-mode:multiply" opacity="0.2">
<path fill-rule="evenodd" clip-rule="evenodd" d="M183.401 328.437L177.315 329.28L529.409 327.689L527.176 327.24L527.135 310.03L181.726 310.751L183.401 328.437Z" fill="#BEA5BB"/>
</g>
<path d="M55.4865 325.416L50.1079 324.668L52.1504 382.598L55.4865 382.163V325.416Z" fill="#A9224E"/>
<path d="M156.97 286.03L135.47 268.33L134.775 279.037L55.4865 325.417V382.163L132.079 324.355L132.27 317.254L131.221 333.43L156.97 286.03Z" fill="url(#paint14_linear_2_275)"/>
<path d="M50.1079 324.668L132.964 278.629L133.631 268.33H135.47L134.775 279.037L55.4865 325.417L50.1079 324.668Z" fill="#A9224E"/>
<path d="M132.964 278.629L134.775 279.037L55.4865 325.417L50.1079 324.668L132.964 278.629Z" fill="#FF9F4E"/>
<path d="M131.221 333.43H129.642L130.431 325.593L132.079 324.355L131.221 333.43Z" fill="#A9224E"/>
<path d="M410.127 129.967L408.507 129.654L408.221 147.259L409.242 147.177L410.127 129.967Z" fill="#A9224E"/>
<path d="M441.513 119.6L435.263 113.899L434.882 117.137L410.127 129.967L409.242 147.177L433.371 130.824L433.534 128.688L432.962 133.572L441.513 119.6Z" fill="url(#paint15_linear_2_275)"/>
<path d="M408.507 129.654L434.351 116.974L434.705 113.872L435.263 113.899L434.882 117.137L410.127 129.967L408.507 129.654Z" fill="#A9224E"/>
<path d="M434.351 116.974L434.882 117.137L410.127 129.967L408.507 129.654L434.351 116.974Z" fill="#FF9F4E"/>
<path d="M432.962 133.572L432.486 133.545L432.853 131.178L433.371 130.824L432.962 133.572Z" fill="#A9224E"/>
<path d="M554.203 252.072L559.581 251.324L557.539 309.254L554.203 308.818V252.072Z" fill="#A9224E"/>
<path d="M452.719 212.686L474.22 194.986L474.914 205.693L554.203 252.072V308.818L477.61 250.998L477.42 243.909L478.468 260.086L452.719 212.686Z" fill="url(#paint16_linear_2_275)"/>
<path d="M559.581 251.324L476.725 205.285L476.058 194.986H474.22L474.914 205.693L554.203 252.072L559.581 251.324Z" fill="#A9224E"/>
<path d="M476.725 205.285L474.914 205.693L554.203 252.072L559.581 251.324L476.725 205.285Z" fill="#FF9F4E"/>
<path d="M478.468 260.086H480.048L479.258 252.249L477.61 250.998L478.468 260.086Z" fill="#A9224E"/>
<g style="mix-blend-mode:multiply" opacity="0.7">
<path fill-rule="evenodd" clip-rule="evenodd" d="M287.894 396.72L243.532 421.74L239.76 469.983L434.952 473.03L427.967 421.74L385.538 398.326L381.752 365.919L368.122 362.204L364.732 355.579H356.208L349.618 360.708L291.734 365.919L287.894 396.72Z" fill="#A583A1"/>
</g>
<path fill-rule="evenodd" clip-rule="evenodd" d="M358.21 258.1C358.21 258.1 359.095 268.331 358.21 275.378C358.21 275.378 362.744 270.29 368.558 272.439C368.558 272.439 366.992 270.222 367.06 269.052C367.128 267.882 368.109 261.297 368.109 261.297L358.223 258.1H358.21Z" fill="#E85B48"/>
<path fill-rule="evenodd" clip-rule="evenodd" d="M372.466 305.567L355.949 306.016L354.982 305.105C356.739 296.044 358.21 274.466 358.21 274.466C358.21 274.466 361.164 269.392 364.228 269.392C367.292 269.392 368.544 271.909 368.544 271.909C370.042 274.779 371.159 281.174 371.159 281.174C371.159 281.174 369.784 291.337 371.091 295.976C372.398 300.602 372.452 305.554 372.452 305.554L372.466 305.567Z" fill="url(#paint17_linear_2_275)"/>
<path fill-rule="evenodd" clip-rule="evenodd" d="M372.466 305.567L355.949 306.016C355.949 306.016 356.93 289.854 359.612 284.112C362.294 278.385 369.402 278.698 371.159 281.174C371.159 281.174 369.783 291.337 371.091 295.976C372.398 300.602 372.452 305.554 372.452 305.554L372.466 305.567Z" fill="#B82557"/>
<path fill-rule="evenodd" clip-rule="evenodd" d="M358.359 263.936C358.359 263.936 364.827 269.392 367.632 264.48L367.918 262.481L357.951 259.12C357.951 259.12 358.346 262.848 358.359 263.936Z" fill="#B33748"/>
<path fill-rule="evenodd" clip-rule="evenodd" d="M375.625 232.971C375.625 238.277 369.035 261.896 369.035 261.896C363.697 265.202 359.775 261.27 357.951 259.134C357.57 258.685 357.284 258.304 357.093 258.1C356.017 256.916 354.397 256.494 354.397 256.494C354.942 243.815 352.899 216.169 352.899 216.169C356.276 211.829 371.758 213.489 371.758 213.489C371.554 215.108 371.976 217.339 372.602 219.802C373.773 224.305 375.639 229.543 375.639 232.985L375.625 232.971Z" fill="url(#paint18_linear_2_275)"/>
<g style="mix-blend-mode:multiply" opacity="0.91">
<path d="M363.384 227.502C363.384 227.502 357.828 246.998 358.223 258.086L357.964 259.12C357.583 258.671 357.297 258.29 357.107 258.086C356.031 256.902 354.411 256.481 354.411 256.481C354.955 243.801 352.913 216.156 352.913 216.156C356.29 211.816 371.772 213.476 371.772 213.476C371.567 215.095 371.989 217.326 372.616 219.788L363.397 227.502H363.384Z" fill="#935B9D"/>
</g>
<g style="mix-blend-mode:multiply" opacity="0.91">
<path fill-rule="evenodd" clip-rule="evenodd" d="M371.935 251.012C371.935 251.012 367.741 259.46 366.025 260.317C364.31 261.174 361.654 259.746 361.654 259.746C361.654 259.746 363.738 262.032 365.413 262.032C367.087 262.032 369.865 258.862 369.865 258.862L371.935 251.012Z" fill="#935B9D"/>
</g>
<path fill-rule="evenodd" clip-rule="evenodd" d="M318.994 360.83C318.994 360.83 319.893 363.715 320.111 367.796C320.111 367.796 326.892 367.905 329.901 371.987V352.327L318.994 360.83Z" fill="url(#paint19_linear_2_275)"/>
<path fill-rule="evenodd" clip-rule="evenodd" d="M335.552 412.896H313.262C313.262 412.896 312.608 409.958 313.262 404.23C313.915 398.489 314.187 384.38 314.119 382.245C314.051 380.095 320.097 367.81 320.097 367.81C325.789 364.626 329.887 372 329.887 372C329.887 372 330.255 376.19 330.813 382.884C331.426 389.959 331.603 400.162 333.536 405.237C335.484 410.311 335.552 412.91 335.552 412.91V412.896Z" fill="url(#paint20_linear_2_275)"/>
<path fill-rule="evenodd" clip-rule="evenodd" d="M314.119 382.231C314.119 382.231 322.752 377.469 327.096 384.557C331.44 391.659 332.896 412.883 332.896 412.883H313.248C313.248 412.883 312.676 410.57 313.125 405.4C313.575 400.23 314.106 382.217 314.106 382.217L314.119 382.231Z" fill="#B82557"/>
<path fill-rule="evenodd" clip-rule="evenodd" d="M319.375 362.341C319.375 362.341 322.684 367.565 329.901 360.898V352.327L317.333 355.783C317.333 355.783 319.144 360.939 319.375 362.341Z" fill="#B33748"/>
<path fill-rule="evenodd" clip-rule="evenodd" d="M386.559 199.748C386.028 205.435 378.267 215.326 372.262 216.822C366.23 218.333 362.226 216.822 356.562 216.183C350.897 215.53 346.772 217.788 346.772 217.788C346.772 217.788 342.033 235.189 339.882 253.991C337.73 272.793 337.485 292.248 337.267 293.758C337.049 295.255 334.762 298.125 334.762 298.125C331.753 319.621 333.536 350.627 333.536 350.627C333.536 350.627 333.046 351.035 332.447 351.593C331.794 352.205 330.977 352.994 330.527 353.647C329.724 354.776 329.806 357.742 329.806 358.109V358.137C325.87 362.735 317.837 360.572 317.837 360.572C310.674 346.681 308.087 317.172 308.659 313.295C309.231 309.431 317.401 297.241 317.401 295.105C317.401 293.268 311.042 241.298 310.497 219.748C310.402 216.033 310.497 213.217 310.811 211.721C312.962 201.544 321.813 185.422 321.813 185.422L340.644 176.307L376.564 177.055C376.564 177.055 376.66 177.205 376.81 177.463C378.267 179.844 385.647 192.198 386.491 198.225C386.573 198.782 386.6 199.286 386.559 199.721V199.748Z" fill="url(#paint21_linear_2_275)"/>
<g style="mix-blend-mode:multiply" opacity="0.91">
<path d="M376.81 177.491V182.103C376.81 182.103 362.907 198.782 350.966 202.32C339.038 205.87 317.837 199.422 317.837 199.422C317.837 199.422 311.668 210.904 310.511 219.72C310.511 219.72 310.511 219.747 310.511 219.761C310.416 216.047 310.511 213.231 310.824 211.734C312.976 201.558 321.826 185.436 321.826 185.436L340.658 176.321L376.578 177.069C376.578 177.069 376.673 177.218 376.823 177.477L376.81 177.491Z" fill="#935B9D"/>
</g>
<path style="mix-blend-mode:multiply" opacity="0.5" d="M386.559 199.748C386.028 205.435 378.267 215.326 372.262 216.822C366.23 218.332 362.226 216.822 356.562 216.183C350.897 215.53 346.772 217.788 346.772 217.788C346.772 217.788 345.383 222.877 343.776 230.55C342.401 237.039 340.876 245.365 339.882 253.991C337.73 272.793 337.485 292.248 337.267 293.758C337.05 295.255 334.762 298.125 334.762 298.125C325.544 310.642 330.759 342.681 332.447 351.593C331.794 352.205 330.977 352.994 330.527 353.647C329.724 354.776 329.806 357.742 329.806 358.109L328.458 323.186L329.874 297.255L320.424 299.445L331.072 294.928L334.98 271.977L331.262 282.779C334.776 269.46 336.655 244.753 336.655 244.753L335.402 234.482L334.176 224.441C324.904 224.876 318.817 222.618 318.817 222.618C325.693 224.223 332.256 222.618 332.256 222.618C332.256 222.618 347.303 213.38 349.141 213.135C350.966 212.891 357.842 214.02 369.579 213.135C380.459 212.319 385.783 200.007 386.505 198.238C386.586 198.796 386.613 199.299 386.573 199.735L386.559 199.748Z" fill="url(#paint22_linear_2_275)"/>
<path fill-rule="evenodd" clip-rule="evenodd" d="M404.928 208.102C404.928 208.102 409.462 238.549 419.511 255.882L423.814 251.583C423.814 251.583 410.143 226.645 408.441 208.673L408.209 206.034L404.928 208.115V208.102Z" fill="#581124"/>
<path fill-rule="evenodd" clip-rule="evenodd" d="M402.313 197.694C402.313 197.694 402.926 199.721 402.218 203.585C401.51 207.449 400.502 210.36 400.502 210.36C400.502 210.36 400.87 211.217 401.605 211.367C402.34 211.516 403.988 209.938 404.696 208.863C405.418 207.789 404.26 204.959 404.369 204.238C404.478 203.517 404.928 202.619 404.928 202.619C404.928 202.619 403.934 198.782 402.3 197.694H402.313Z" fill="#B33748"/>
<path fill-rule="evenodd" clip-rule="evenodd" d="M401.578 188.687C401.578 188.687 411.831 186.102 415.344 178.797C415.344 178.797 410.252 176.511 405.445 179.654C400.638 182.81 401.578 188.674 401.578 188.674V188.687Z" fill="#2B1548"/>
<path fill-rule="evenodd" clip-rule="evenodd" d="M419.497 203.013C419.497 203.952 415.344 206.319 415.344 206.319L407.174 208.115L404.015 200.374C404.015 200.374 402.068 198.007 402.218 196.932C402.368 195.857 404.791 187.191 404.791 186.755C404.791 186.32 403.198 184.007 403.198 184.007C403.198 184.007 403.852 182.824 405.077 181.586C406.412 180.225 408.441 178.81 410.973 178.824C410.973 178.824 411.341 179.137 411.886 179.735C412.539 180.416 413.424 181.45 414.268 182.742L414.65 183.327C414.895 183.708 415.099 184.116 415.317 184.524C416.365 186.579 417.673 192.646 418.544 197.286C419.102 200.252 419.47 202.632 419.47 203L419.497 203.013Z" fill="url(#paint23_linear_2_275)"/>
<path fill-rule="evenodd" clip-rule="evenodd" d="M402.926 184.538L404.805 186.756C404.805 186.756 408.522 182.334 413.86 182.116L411.464 178.769C411.464 178.769 405.268 178.076 402.926 184.538Z" fill="url(#paint24_linear_2_275)"/>
<path fill-rule="evenodd" clip-rule="evenodd" d="M316.666 183.953C316.666 183.953 319.062 188.824 326.238 190.823C333.414 192.823 340.29 185.803 340.29 185.803C340.29 185.803 326.674 182.524 316.666 183.953Z" fill="#2B1548"/>
<path fill-rule="evenodd" clip-rule="evenodd" d="M322.725 110.323C322.725 110.323 320.015 113.779 319.729 116.609C319.443 119.452 329.424 149.301 335.892 153.587C342.36 157.886 342.796 128.363 342.796 128.363L322.725 110.31V110.323Z" fill="url(#paint25_radial_2_275)"/>
<path fill-rule="evenodd" clip-rule="evenodd" d="M378.77 179.749C378.77 179.749 364.16 199.014 347.589 201.122C339.16 202.197 331.725 199.925 326.442 197.449C321.336 195.041 318.259 192.442 318.259 192.442L317.85 191.626L319.729 187.667L320.873 185.245L333.809 176.307L340.304 171.817L356.535 174.171L376.578 177.069L378.784 179.735L378.77 179.749Z" fill="url(#paint26_linear_2_275)"/>
<path style="mix-blend-mode:multiply" opacity="0.5" d="M361.804 193.939C361.491 194.279 356.044 199.993 343.122 199.435C329.792 198.864 324.005 193.925 324.005 193.925L326.429 197.449C321.322 195.041 318.245 192.442 318.245 192.442L317.837 191.626L320.86 185.245L340.277 171.817L376.551 177.082C376.551 177.082 364.922 187.409 354.288 188.687C354.288 188.687 361.791 185.817 363.493 181.926C362.826 182.157 341.134 189.912 334.163 189.531C334.163 189.531 339.038 196.089 346.744 197.708C354.233 199.272 361.409 194.211 361.791 193.939H361.804Z" fill="url(#paint27_linear_2_275)"/>
<g style="mix-blend-mode:multiply" opacity="0.91">
<path fill-rule="evenodd" clip-rule="evenodd" d="M376.565 177.082C376.565 177.082 360.429 184.171 342.796 188.252C325.162 192.334 319.716 187.667 319.716 187.667L320.86 185.245L333.795 176.307L356.521 174.171L366.012 173.273L376.565 177.069V177.082Z" fill="#935B9D"/>
</g>
<path fill-rule="evenodd" clip-rule="evenodd" d="M415.344 178.81C415.344 178.81 403.729 176.661 401.578 188.687C401.524 188.647 401.483 188.579 401.428 188.524C401.401 188.483 401.36 188.456 401.333 188.415C401.074 188.116 400.611 187.585 399.985 186.864C399.93 186.796 399.876 186.715 399.808 186.633C396.063 182.157 387.43 170.933 383.877 158.825C383.877 158.825 383.223 149.097 380.541 141.125C377.858 133.139 373.133 128.091 373.133 128.091C373.133 128.091 365.93 142.921 365.93 151.845L367.932 153.777L366.461 155.818C366.461 155.818 372.806 168.28 377.967 176.987C377.967 176.987 360.334 177.953 350.23 184.932L348.624 182.511L346.881 179.885L343.654 183.232L341.298 185.694C341.298 185.694 326.347 187.953 316.666 183.967C316.666 183.967 323.733 177.001 329.465 170.158C332.243 166.838 334.721 163.546 335.906 161.083L334.503 160.008L336.764 157.423C336.764 157.423 333.741 141.982 324.427 120.513L322.711 110.337C322.711 110.337 342.496 100.31 362.131 97.0039L367.006 95.4257C367.006 95.4257 369.184 94.3918 370.75 93.8612C371.322 93.6571 371.812 93.5347 372.085 93.5483C373.106 93.6027 381.63 100.16 386.94 115.343C389.704 123.275 393.571 135.887 398.582 148.39C403.171 159.845 408.727 171.205 415.317 178.81H415.344Z" fill="url(#paint28_radial_2_275)"/>
<path style="mix-blend-mode:multiply" opacity="0.8" fill-rule="evenodd" clip-rule="evenodd" d="M419.497 203.013C419.497 203.952 415.344 206.319 415.344 206.319L407.174 208.115L404.015 200.374C404.015 200.374 402.068 198.007 402.218 196.932C402.368 195.857 404.791 187.191 404.791 186.756C404.791 186.32 403.198 184.007 403.198 184.007C403.198 184.007 403.852 182.824 405.077 181.586L411.886 179.735C412.539 180.416 413.424 181.45 414.268 182.742C414.268 182.742 409.598 185.45 408.373 188.171C407.161 190.891 408.781 196.986 408.781 196.986C408.781 196.986 412.539 198.837 418.081 197.123L418.558 197.272C419.116 200.238 419.484 202.619 419.484 202.986L419.497 203.013Z" fill="url(#paint29_linear_2_275)"/>
<path fill-rule="evenodd" clip-rule="evenodd" d="M418.095 204.524C415.753 207.802 413.86 208.102 413.86 208.102L413.479 208.142L408.441 208.673H408.4L407.188 208.102L405.513 208.673C403.239 206.619 402.98 202.728 402.953 201.476V201.068L403.757 199.49L404.955 199.762L410.483 199.15L412.212 198.048L413.179 198.252C413.465 199.476 412.553 201.775 412.553 201.775L414.364 204.075L415.834 203.299C416.965 203.299 418.122 204.524 418.122 204.524H418.095Z" fill="url(#paint30_linear_2_275)"/>
<path style="mix-blend-mode:multiply" opacity="0.5" fill-rule="evenodd" clip-rule="evenodd" d="M413.492 208.129L408.454 208.659L407.188 208.088L405.513 208.659C403.239 206.605 402.98 202.714 402.953 201.463V201.054L403.757 199.476L404.955 199.748L410.483 199.136L412.212 198.034C412.212 198.034 409.162 200.741 409.081 201.122C408.999 201.503 412.743 207.762 413.506 208.129H413.492Z" fill="url(#paint31_linear_2_275)"/>
<g style="mix-blend-mode:soft-light">
<path d="M347.221 179.899L346.54 179.831L348.351 159.818L346.704 158.525L347.929 157.151C347.507 155.179 343.531 136.635 342.455 128.404C341.311 119.683 344.402 111.561 344.443 111.48L345.083 111.725C345.056 111.806 342.02 119.765 343.136 128.322C344.266 136.948 348.596 156.974 348.637 157.179L348.678 157.342L347.698 158.43L349.059 159.505L347.221 179.885V179.899Z" fill="url(#paint32_linear_2_275)"/>
</g>
<path fill-rule="evenodd" clip-rule="evenodd" d="M465.535 270.059C465.535 270.059 459.366 269.487 455.499 270.644C451.632 271.786 447.956 275.718 447.956 275.718C447.956 275.718 439.663 265.582 431.82 239.053C431.657 238.495 431.493 237.951 431.33 237.42C423.31 211.068 415.072 203.694 415.072 203.694L414.337 204.075L412.526 201.775L413.125 199.653L415.753 199.109C417.278 199.912 418.612 200.986 419.878 202.347C425.298 208.156 429.138 218.972 438.397 234.155C449.794 252.848 465.535 270.072 465.535 270.072V270.059Z" fill="url(#paint33_linear_2_275)"/>
<path style="mix-blend-mode:multiply" opacity="0.91" fill-rule="evenodd" clip-rule="evenodd" d="M333.836 146.104C333.836 146.104 335.565 147.846 338.52 146.431C341.475 145.016 346.295 142.036 350.966 134.077C355.636 126.118 359.244 110.323 359.244 110.323L370.777 93.8612L367.033 95.4258L362.158 97.0039L338.52 120.432L330.623 146.444L331.998 148.866L334.176 147.247L333.836 146.104Z" fill="url(#paint34_linear_2_275)"/>
<path fill-rule="evenodd" clip-rule="evenodd" d="M431.344 237.407C431.058 236.482 426.237 248.957 417.101 258.086C417.101 258.086 415.385 283.446 426.782 296.656H427.967L429.791 294.18L435.279 302.411L447.969 275.691C447.969 275.691 440.439 266.344 431.344 237.379V237.407Z" fill="#581124"/>
<path fill-rule="evenodd" clip-rule="evenodd" d="M412.199 198.034C412.199 198.034 409.367 197.463 408.795 197C408.236 196.524 406.684 191.912 406.888 190.13C406.888 190.13 406.276 193.844 407.964 197.68L404.587 199.653L410.47 199.122L412.199 198.02V198.034Z" fill="#B33748"/>
<path fill-rule="evenodd" clip-rule="evenodd" d="M404.805 186.756L404.124 189.517C404.124 189.517 409.203 183.749 414.296 182.756L413.86 182.116C413.86 182.116 409.135 181.858 404.805 186.756Z" fill="#B33748"/>
<path fill-rule="evenodd" clip-rule="evenodd" d="M407.174 208.102C407.174 208.102 404.764 203.163 404.737 202.061C404.71 200.959 404.941 199.748 404.941 199.748C404.941 199.748 404.492 201.258 404.41 202.17C404.328 203.081 407.174 208.102 407.174 208.102Z" fill="#B33748"/>
<path fill-rule="evenodd" clip-rule="evenodd" d="M410.864 208.415C410.864 208.415 407.106 203.598 406.97 202.279C406.834 200.959 407.174 199.435 407.174 199.435C407.174 199.435 407.133 200.905 407.447 202.469C407.773 204.034 410.851 208.415 410.851 208.415H410.864Z" fill="#B33748"/>
<path fill-rule="evenodd" clip-rule="evenodd" d="M410.47 199.136L409.067 201.122L409.203 199.258L410.47 199.136Z" fill="#B33748"/>
<path style="mix-blend-mode:multiply" opacity="0.91" d="M367.033 95.4258C367.033 95.4258 369.212 94.3918 370.777 93.8612L359.244 110.323C359.244 110.323 353.975 130.758 348.923 137.424C343.871 144.091 338.52 146.431 338.52 146.431V159.246L349.672 158.267L367.918 153.75L366.447 155.791C366.447 155.791 353.648 156.988 348.705 159.655L329.465 170.13C332.243 166.811 334.721 163.518 335.906 161.056L334.503 159.981L336.764 157.396C336.764 157.396 333.741 141.955 324.427 120.486L322.711 110.31C322.711 110.31 342.496 100.283 362.131 96.9767L367.006 95.3986L367.033 95.4258Z" fill="url(#paint35_linear_2_275)"/>
<path style="mix-blend-mode:multiply" opacity="0.91" d="M390.358 171.314C390.739 172.008 395.941 181.626 399.808 186.619C396.063 182.143 387.43 170.919 383.877 158.811C383.877 158.811 383.223 149.084 380.54 141.111C377.858 133.125 373.133 128.078 373.133 128.078C373.133 128.078 365.93 142.907 365.93 151.832C365.93 151.832 365.617 133.125 367.224 125.724C367.224 125.724 361.654 117.194 360.511 111.643C360.756 112.201 364.813 121.098 368.504 124.336L370.723 122.935C370.723 122.935 367.469 101.752 370.791 93.8612C371.363 93.6571 371.853 93.5347 372.126 93.5483C372.126 93.5483 368.844 108.65 372.126 121.003L376.905 129.166C376.905 129.166 389.677 145.573 386.613 146.444C383.468 147.328 385.51 157.315 389.595 165.709C393.612 173.953 401.973 180.647 402.232 180.851C401.877 180.715 396.322 178.28 390.385 171.341L390.358 171.314Z" fill="url(#paint36_linear_2_275)"/>
<path fill-rule="evenodd" clip-rule="evenodd" d="M367.033 95.4258L362.158 97.0039C362.049 97.3032 361.94 97.5889 361.831 97.861C360.987 100.038 360.143 102.147 359.258 104.174C345.478 135.996 326.892 150.566 326.892 150.566C325.761 152.308 325.421 155.233 325.353 156.158C325.326 156.335 325.326 156.444 325.326 156.444H324.618C324.522 152.117 326.538 145.886 326.647 145.505C324.182 150.118 323.215 156.226 323.215 156.226C319.348 160.634 314.827 161.818 314.827 161.818L315.263 153.968C311.818 155.696 309.095 155.573 309.095 155.573C309.095 155.573 315.263 150.131 316.407 145.982C317.551 141.832 319.784 113.248 320.424 111.207C321.064 109.167 325.557 105.534 325.557 105.534C325.557 105.017 325.584 104.487 325.584 103.97C326.17 84.3514 331.385 65.9575 331.385 65.9575C337.417 57.1143 345.955 54.5974 346.499 54.4478H346.527H347.67C347.67 54.4478 351.524 52.6519 355.159 53.2913C362.866 54.6518 367.019 61.7536 367.019 61.7536C369.035 80.0522 367.019 95.4122 367.019 95.4122L367.033 95.4258Z" fill="url(#paint37_linear_2_275)"/>
<path d="M347.67 54.4477C347.67 54.4477 350.108 52.9376 353.689 53.7267C357.27 54.5157 361.219 59.672 362.648 61.9576C364.078 64.2433 364.35 88.7865 358.563 105.684C352.776 122.581 324.509 146.118 323.215 147.737C321.922 149.342 316.652 161.11 316.652 161.11L314.827 161.804C314.827 161.804 314.936 155.029 316.012 152.022C317.088 149.015 324.863 145.791 338.506 130.213C352.15 114.636 360.429 91.0994 361.723 75.8483C363.016 60.5971 354.765 55.7266 352.368 54.679C349.972 53.6314 347.67 54.4341 347.67 54.4341V54.4477Z" fill="url(#paint38_linear_2_275)"/>
<path d="M318.517 149.165C318.517 149.165 321.717 144.308 321.717 134.213C321.717 124.119 320.451 112.786 321.717 110.323C322.984 107.861 328.471 104.976 328.471 104.976C328.471 104.976 327.205 86.4057 329.206 75.1409C329.206 75.1409 325.584 86.6098 325.911 104.813C325.911 104.813 321.282 109.167 320.424 111.207C319.566 113.248 320.628 126.554 316.979 150.594L318.517 149.152V149.165Z" fill="url(#paint39_linear_2_275)"/>
<path d="M335.266 61.3727C335.266 61.3727 332.188 66.2024 331.249 81.0318C330.309 95.8611 330.963 102.949 330.105 104.024C329.247 105.099 324.277 106.541 322.725 110.323C321.173 114.119 324.55 126.581 323.76 136.036C322.97 145.492 317.85 150.607 317.85 150.607L327.995 141.111C327.995 141.111 326.034 135.111 324.196 125.016C322.357 114.922 323.065 111.874 323.923 109.711C324.781 107.548 334.081 103.861 334.735 102.84C335.375 101.82 333.196 91.9429 332.856 79.44C332.515 66.9235 335.279 61.3727 335.279 61.3727H335.266Z" fill="url(#paint40_linear_2_275)"/>
<path style="mix-blend-mode:multiply" opacity="0.5" d="M367.019 61.7536C367.019 61.7536 366.121 82.882 362.145 96.9903L367.019 95.4121C367.019 95.4121 368.885 74.3926 367.019 61.74V61.7536Z" fill="url(#paint41_linear_2_275)"/>
<path style="mix-blend-mode:multiply" opacity="0.5" d="M327.232 139.043C327.232 139.043 339.446 130.282 346.064 120.01C346.064 120.01 338.983 131.615 327.981 141.111L327.232 139.043Z" fill="url(#paint42_linear_2_275)"/>
<path style="mix-blend-mode:multiply" opacity="0.5" d="M359.244 104.174C345.464 135.996 326.878 150.566 326.878 150.566C325.748 152.308 325.407 155.233 325.339 156.158L324.876 156.444H324.618C324.522 152.117 326.538 145.886 326.647 145.505C324.182 150.118 323.215 156.226 323.215 156.226C319.348 160.634 314.827 161.818 314.827 161.818L315.263 153.968C311.818 155.696 309.095 155.573 309.095 155.573C309.095 155.573 315.263 150.131 316.407 145.982C317.551 141.832 319.784 113.248 320.424 111.207C320.424 111.207 320.301 114.649 321.254 119.996L322.316 112.867C322.316 112.867 323.419 121.615 324.618 127.288C324.618 127.288 325.884 118.078 327.246 114.377C328.607 110.663 329.22 109.67 329.22 109.67C329.22 109.67 328.757 112.677 329.22 114.826C329.22 114.826 346.99 112.826 351.987 109.208C351.987 109.208 346.472 119.234 343.681 123.697C344.144 123.248 351.701 116.092 356.78 108.459C357.706 107.058 358.523 105.602 359.244 104.174Z" fill="url(#paint43_linear_2_275)"/>
<path style="mix-blend-mode:multiply" opacity="0.5" d="M357.611 58.802C357.529 58.7065 357.447 58.611 357.352 58.5292C357.406 58.5701 357.502 58.6656 357.611 58.802Z" fill="url(#paint44_linear_2_275)"/>
<path style="mix-blend-mode:multiply" opacity="0.5" d="M367.033 95.4257L362.158 97.0039C362.049 97.3032 361.94 97.5889 361.831 97.861C363.098 94.0924 363.534 91.3442 363.534 91.3442C363.534 91.3442 361.927 85.0588 360.361 84.8275C360.361 84.8275 358.863 93.1809 355.636 101.711C355.636 101.711 348.174 104.65 341.979 104.718C335.77 104.799 325.911 104.813 325.911 104.813L325.598 103.97C326.184 84.3513 331.399 65.9575 331.399 65.9575C331.399 65.9575 331.004 71.4811 331.916 74.1612L333.7 66.8962L333.768 71.277L335.987 72.7055C335.987 72.7055 336.736 64.8963 338.52 61.7535C340.181 58.7877 345.778 54.9647 346.472 54.4885C345.887 54.9919 341.461 58.7469 340.1 61.7535C338.643 64.9779 338.52 69.9165 338.52 69.9165C338.52 69.9165 342.864 71.0593 345.805 69.4811L347.629 54.8967C347.48 56.9782 346.908 65.631 347.602 69.1954C347.602 69.1954 354.846 68.9778 359.299 66.3248C359.299 66.3248 359.871 61.3454 357.624 58.7877C358.427 59.6856 360.456 62.5698 361.709 69.6172L363.52 65.8214L367.033 61.7399C369.048 80.0386 367.033 95.3985 367.033 95.3985V95.4257Z" fill="url(#paint45_linear_2_275)"/>
<g style="mix-blend-mode:screen" opacity="0.7">
<path d="M335.266 61.3727L333.591 63.8352H337.649C337.649 63.8352 336.777 66.9371 336.45 69.1547L333.509 68.4608L331.399 65.9847C331.399 65.9847 333.877 62.6651 335.266 61.3727Z" fill="#972A3D"/>
</g>
<g style="mix-blend-mode:screen" opacity="0.7">
<path d="M339.174 64.6378H346.404L345.791 69.4948C345.791 69.4948 341.829 71.0049 338.506 69.9301L339.174 64.6514V64.6378Z" fill="#972A3D"/>
</g>
<g style="mix-blend-mode:screen" opacity="0.7">
<path d="M347.275 64.6378C347.275 64.6378 354.901 65.0868 359.244 63.1005L359.285 66.3384C359.285 66.3384 354.397 69.5764 347.589 69.2091L347.262 64.6378H347.275Z" fill="#972A3D"/>
</g>
<g style="mix-blend-mode:screen" opacity="0.7">
<path d="M361.614 60.4475L364.473 58.5292L367.033 61.7671L363.52 65.8486C363.52 65.8486 362.771 61.9304 361.614 60.4475Z" fill="#972A3D"/>
</g>
<g style="mix-blend-mode:screen" opacity="0.7">
<path d="M323.093 109.561L323.923 109.711C323.923 109.711 324.413 108.269 329.452 105.82L327.79 105.493C327.79 105.493 324.019 107.289 323.106 109.561H323.093Z" fill="#972A3D"/>
</g>
<g style="mix-blend-mode:screen" opacity="0.7">
<path d="M327.668 109.602C327.668 109.602 335.906 110.092 344.076 109.303L345.71 105.983C345.71 105.983 339.201 106.024 331.276 105.983C331.276 105.983 327.967 107.861 327.668 109.602Z" fill="#972A3D"/>
</g>
<g style="mix-blend-mode:screen" opacity="0.7">
<path d="M354.955 102.391L360.483 98.963L357.719 106.459L350.748 111.616C350.748 111.616 354.288 105.997 354.955 102.391Z" fill="#972A3D"/>
</g>
<path fill-rule="evenodd" clip-rule="evenodd" d="M331.399 65.9711C331.399 65.9711 326.987 82.7324 323.106 98.9494C319.226 115.167 314.841 118.908 313.629 122.84C312.404 126.785 316.407 142.145 315.345 146.05C314.283 149.954 311.11 153.641 311.11 153.641C311.11 153.641 314.242 151.995 315.903 147.301C317.564 142.608 313.248 129.465 315.481 122.119C317.714 114.772 321.826 107.072 324.019 101.888C326.211 96.691 328.539 82.0113 328.539 82.0113L331.412 65.9575L331.399 65.9711Z" fill="url(#paint46_linear_2_275)"/>
<path fill-rule="evenodd" clip-rule="evenodd" d="M361.818 97.8611C361.818 97.8611 355.908 118.418 350.748 130.567C345.587 142.703 331.385 146.444 331.385 146.444L333.101 144.716C333.101 144.716 342.782 140.853 349.155 130.105C355.541 119.357 357.706 106.473 357.706 106.473L361.804 97.8747L361.818 97.8611Z" fill="url(#paint47_linear_2_275)"/>
<path style="mix-blend-mode:multiply" opacity="0.5" fill-rule="evenodd" clip-rule="evenodd" d="M347.017 104.174C347.017 104.174 358.632 91.1267 361.723 75.8619C361.723 75.8619 359.843 90.2559 355.159 101.902C355.159 101.902 349.522 103.779 347.017 104.174Z" fill="url(#paint48_linear_2_275)"/>
<path style="mix-blend-mode:multiply" opacity="0.91" d="M386.559 199.748C386.028 205.435 378.267 215.326 372.262 216.822C366.23 218.332 362.226 216.822 356.562 216.183C350.897 215.53 346.772 217.788 346.772 217.788C346.772 217.788 345.383 222.877 343.776 230.55L335.402 234.482L334.176 224.441C324.904 224.876 318.817 222.618 318.817 222.618C325.693 224.223 332.256 222.618 332.256 222.618C332.256 222.618 347.303 213.38 349.141 213.135C350.966 212.891 357.842 214.02 369.579 213.135C380.459 212.319 385.783 200.007 386.505 198.238C386.586 198.796 386.613 199.299 386.573 199.735L386.559 199.748Z" fill="url(#paint49_linear_2_275)"/>
<path style="mix-blend-mode:multiply" opacity="0.91" fill-rule="evenodd" clip-rule="evenodd" d="M311.573 237.366C311.573 237.366 317.346 279.16 321.254 289.908C321.254 289.908 313.466 275.949 311.573 237.366Z" fill="url(#paint50_linear_2_275)"/>
<path style="mix-blend-mode:multiply" opacity="0.5" fill-rule="evenodd" clip-rule="evenodd" d="M310.919 336.655C310.919 336.655 314.337 350.654 316.489 354.382C318.64 358.11 323.733 359.47 323.733 359.47C323.733 359.47 319.784 359.756 318.055 359.116C316.339 358.477 315.073 353.919 315.073 353.919C315.073 353.919 312.009 343.92 310.906 336.668L310.919 336.655Z" fill="url(#paint51_linear_2_275)"/>
<g style="mix-blend-mode:soft-light" opacity="0.33">
<path fill-rule="evenodd" clip-rule="evenodd" d="M308.673 313.322C308.673 313.322 312.39 303.105 316.407 301.282C320.424 299.459 327.314 298.996 327.314 298.996C327.314 298.996 328.035 306.016 327.314 326.641C326.592 347.266 321.254 354.001 321.254 354.001C321.254 354.001 309.245 347.416 308.673 313.322Z" fill="#ECD6E0"/>
</g>
<path fill-rule="evenodd" clip-rule="evenodd" d="M427.967 296.67C427.967 296.67 437.648 277.65 442.7 272.058C442.7 272.058 429.9 245.297 430.009 243.583C430.118 241.869 431.344 237.407 431.344 237.407L431.984 239.434C431.984 239.434 431.289 241.923 431.289 243.692C431.289 245.461 444.225 271.841 444.225 271.841L430.213 294.847L427.939 296.656L427.967 296.67Z" fill="#4B1124"/>
<g style="mix-blend-mode:soft-light" opacity="0.33">
<path fill-rule="evenodd" clip-rule="evenodd" d="M447.969 275.718C447.969 275.718 446.894 260.753 447.969 258.1C449.045 255.447 465.535 270.058 465.535 270.058C465.535 270.058 454.355 264.467 447.969 275.718Z" fill="#DDB6C8"/>
</g>
<path fill-rule="evenodd" clip-rule="evenodd" d="M465.535 270.059L443.735 300.71L435.279 302.425C435.279 302.425 443.026 284.521 447.969 275.705C447.969 275.705 451.333 265.025 465.535 270.045V270.059Z" fill="#4B1124"/>
<path style="mix-blend-mode:multiply" opacity="0.5" fill-rule="evenodd" clip-rule="evenodd" d="M447.969 258.1C447.969 258.1 440.221 250.073 437.131 238.169L437.212 233.393C437.212 233.393 455.363 260.93 461.667 266.752C461.667 266.752 451.196 257.46 447.969 258.1Z" fill="url(#paint52_linear_2_275)"/>
<path fill-rule="evenodd" clip-rule="evenodd" d="M427.967 291.119L426.237 287.704L435.279 272.929L437.131 275.718L427.967 291.119Z" fill="url(#paint53_linear_2_275)"/>
<path style="mix-blend-mode:multiply" opacity="0.91" fill-rule="evenodd" clip-rule="evenodd" d="M373.12 128.078L370.696 122.921L368.476 124.323C368.476 124.323 364.8 120.2 362.785 116.228C362.785 116.228 365.44 122.989 367.196 125.71L367.224 143.614C367.224 143.614 370.75 132.295 373.106 128.064L373.12 128.078Z" fill="url(#paint54_linear_2_275)"/>
<path style="mix-blend-mode:multiply" opacity="0.91" fill-rule="evenodd" clip-rule="evenodd" d="M334.517 159.995L349.672 158.267V159.206C349.672 159.206 338.929 162.403 335.919 161.069L334.517 159.995Z" fill="url(#paint55_linear_2_275)"/>
<g style="mix-blend-mode:soft-light" opacity="0.33">
<path fill-rule="evenodd" clip-rule="evenodd" d="M367.918 174.389C367.918 174.389 359.803 180.252 348.61 182.497L346.867 179.872L343.64 183.218C343.054 183.273 342.442 183.314 341.829 183.341C327.286 183.953 321.227 181.695 321.227 181.695C321.227 181.695 331.766 169.409 341.271 163.709C350.789 157.995 365.985 156.988 365.985 156.988C365.985 156.988 369.579 168.906 367.904 174.389H367.918Z" fill="#ECD6E0"/>
</g>
<path fill-rule="evenodd" clip-rule="evenodd" d="M316.666 183.953C316.666 183.953 327.273 186.552 340.29 184.824L347.017 178.484L350.707 183.599C350.707 183.599 362.499 175.831 377.967 176.987L377.327 178.008L376.564 177.096C376.564 177.096 364.31 177.423 350.217 184.946L346.881 179.885L341.298 185.694C341.298 185.694 325.38 188.483 316.666 183.967V183.953Z" fill="#2B1548"/>
<g style="mix-blend-mode:soft-light" opacity="0.57">
<path fill-rule="evenodd" clip-rule="evenodd" d="M372.098 93.5347L371.377 97.861C371.377 97.861 378.58 103.902 383.877 112.881C389.16 121.846 391.311 128.268 391.311 128.268C391.311 128.268 384.38 100.868 372.112 93.5483L372.098 93.5347Z" fill="#ECD6E0"/>
</g>
<path style="mix-blend-mode:screen" opacity="0.7" fill-rule="evenodd" clip-rule="evenodd" d="M397.561 145.737C397.561 145.737 401.374 162.035 404.941 168.484C408.509 174.933 415.358 178.797 415.358 178.797C415.358 178.797 404.914 164.43 397.575 145.737H397.561Z" fill="url(#paint56_linear_2_275)"/>
<path style="mix-blend-mode:screen" opacity="0.7" d="M334.762 298.139C334.762 298.139 330.023 303.132 329.492 319.485C328.948 335.838 332.447 351.606 332.447 351.606L333.536 350.64C333.536 350.64 331.657 323.907 334.762 298.139Z" fill="url(#paint57_linear_2_275)"/>
<path style="mix-blend-mode:screen" d="M335.552 412.896L332.91 405.727C332.91 405.727 328.389 385.673 328.389 382.095C328.389 378.517 329.887 371.986 329.887 371.986C329.887 371.986 330.255 376.177 330.813 382.87C331.426 389.945 331.603 400.149 333.536 405.223C335.484 410.298 335.552 412.896 335.552 412.896Z" fill="url(#paint58_linear_2_275)"/>
<path fill-rule="evenodd" clip-rule="evenodd" d="M431.344 237.42C423.323 211.068 415.085 203.694 415.085 203.694L414.35 204.075L412.539 201.775L413.138 199.653L415.766 199.109C417.291 199.912 418.626 200.986 419.892 202.347L417.441 204.537C417.441 204.537 428.498 220.986 431.357 237.434L431.344 237.42Z" fill="#581124"/>
<path style="mix-blend-mode:screen" fill-rule="evenodd" clip-rule="evenodd" d="M348.705 54.2301C348.705 54.2301 351.224 52.4614 357.079 54.5022C363.506 56.747 365.876 63.1005 365.876 63.1005C365.876 63.1005 368.422 79.4128 367.278 93.0585C367.278 93.0585 369.103 74.0116 367.033 61.7536C367.033 61.7536 363.357 55.645 357.352 53.8491C351.347 52.0533 348.719 54.2165 348.719 54.2165L348.705 54.2301Z" fill="url(#paint59_linear_2_275)"/>
<path style="mix-blend-mode:multiply" opacity="0.91" d="M330.241 393.265L313.575 396.38L314.051 384.53L327.096 384.557C327.096 384.557 329.397 388.489 330.241 393.251V393.265Z" fill="url(#paint60_linear_2_275)"/>
<path fill-rule="evenodd" clip-rule="evenodd" d="M314.051 384.53C314.051 384.53 317.701 401.781 318.49 412.883H322.221C322.221 412.883 323.447 393.686 327.096 384.557C327.096 384.557 325.094 379.796 320.574 379.864C316.053 379.932 314.051 381.728 314.051 381.728V384.53Z" fill="url(#paint61_linear_2_275)"/>
<path style="mix-blend-mode:multiply" opacity="0.91" d="M370.641 286.915L357.066 295.051C357.066 295.051 357.951 287.99 359.163 285.242C360.375 282.493 371.172 281.187 371.172 281.187L370.641 286.915Z" fill="url(#paint62_linear_2_275)"/>
<path fill-rule="evenodd" clip-rule="evenodd" d="M359.163 285.242C359.163 285.242 362.689 292.207 363.384 305.812L367.033 305.717C367.033 305.717 368.558 284.901 371.159 281.187C371.159 281.187 369.783 278.643 365.345 279.133C360.483 279.664 359.149 285.242 359.149 285.242H359.163Z" fill="url(#paint63_linear_2_275)"/>
<path style="mix-blend-mode:screen" opacity="0.7" d="M373.051 221.475C373.051 221.475 374.114 227.53 373.61 234.509C373.106 241.488 371.935 251.025 371.935 251.025C371.935 251.025 375.502 237.624 375.639 232.985C375.775 228.346 373.065 221.489 373.065 221.489L373.051 221.475Z" fill="url(#paint64_linear_2_275)"/>
<path style="mix-blend-mode:screen" d="M420.764 203.354C420.764 203.354 428.28 215.353 433.917 229.38C439.568 243.406 465.521 270.058 465.521 270.058C465.521 270.058 447.384 249.637 437.117 232.046C434.012 226.713 425.257 209.108 420.75 203.354H420.764Z" fill="url(#paint65_linear_2_275)"/>
<path style="mix-blend-mode:screen" opacity="0.5" d="M317.415 295.132C317.415 295.132 313.03 306.016 311.573 316.41C310.034 327.335 314.256 351.293 314.256 351.293C314.256 351.293 307.515 326.505 308.673 313.322C309.803 308.098 317.033 297.527 317.415 295.132Z" fill="url(#paint66_linear_2_275)"/>
<path style="mix-blend-mode:screen" opacity="0.5" d="M352.899 216.156C352.899 216.156 360.497 237.42 354.397 256.481C354.397 256.481 354.206 221.911 352.899 216.156Z" fill="url(#paint67_linear_2_275)"/>
</g>
<defs>
<linearGradient id="paint0_linear_2_275" x1="482.31" y1="258.045" x2="482.31" y2="53.1416" gradientUnits="userSpaceOnUse">
<stop offset="0.02" stop-color="#8C74B1"/>
<stop offset="1" stop-color="#DCD8E9"/>
</linearGradient>
<linearGradient id="paint1_linear_2_275" x1="477.776" y1="440.269" x2="477.776" y2="106.337" gradientUnits="userSpaceOnUse">
<stop offset="0.02" stop-color="#8268AA"/>
<stop offset="1" stop-color="#A9A1CA"/>
</linearGradient>
<linearGradient id="paint2_linear_2_275" x1="346.295" y1="467.289" x2="418.153" y2="35.7348" gradientUnits="userSpaceOnUse">
<stop stop-color="#948ABC"/>
<stop offset="1" stop-color="#F4F2F8"/>
</linearGradient>
<linearGradient id="paint3_linear_2_275" x1="339.677" y1="466.187" x2="411.535" y2="34.6325" gradientUnits="userSpaceOnUse">
<stop stop-color="#948ABC"/>
<stop offset="1" stop-color="#F4F2F8"/>
</linearGradient>
<linearGradient id="paint4_linear_2_275" x1="335.497" y1="465.493" x2="407.355" y2="33.9389" gradientUnits="userSpaceOnUse">
<stop stop-color="#948ABC"/>
<stop offset="1" stop-color="#F4F2F8"/>
</linearGradient>
<linearGradient id="paint5_linear_2_275" x1="330.159" y1="464.609" x2="402.031" y2="33.0545" gradientUnits="userSpaceOnUse">
<stop stop-color="#948ABC"/>
<stop offset="1" stop-color="#F4F2F8"/>
</linearGradient>
<linearGradient id="paint6_linear_2_275" x1="329.506" y1="464.5" x2="401.364" y2="32.9459" gradientUnits="userSpaceOnUse">
<stop stop-color="#948ABC"/>
<stop offset="1" stop-color="#F4F2F8"/>
</linearGradient>
<linearGradient id="paint7_linear_2_275" x1="330.486" y1="464.663" x2="402.344" y2="33.109" gradientUnits="userSpaceOnUse">
<stop stop-color="#948ABC"/>
<stop offset="1" stop-color="#F4F2F8"/>
</linearGradient>
<linearGradient id="paint8_linear_2_275" x1="672.001" y1="407.726" x2="35.785" y2="407.726" gradientUnits="userSpaceOnUse">
<stop offset="0.02" stop-color="#D8CFE4"/>
<stop offset="1" stop-color="white"/>
</linearGradient>
<linearGradient id="paint9_linear_2_275" x1="599.956" y1="359.415" x2="108.048" y2="359.415" gradientUnits="userSpaceOnUse">
<stop offset="0.02" stop-color="#D8CFE4"/>
<stop offset="1" stop-color="white"/>
</linearGradient>
<linearGradient id="paint10_linear_2_275" x1="558.671" y1="330.342" x2="153.731" y2="330.342" gradientUnits="userSpaceOnUse">
<stop offset="0.02" stop-color="#D8CFE4"/>
<stop offset="1" stop-color="white"/>
</linearGradient>
<linearGradient id="paint11_linear_2_275" x1="509.965" y1="295.459" x2="203.2" y2="295.459" gradientUnits="userSpaceOnUse">
<stop offset="0.02" stop-color="#D8CFE4"/>
<stop offset="1" stop-color="white"/>
</linearGradient>
<linearGradient id="paint12_linear_2_275" x1="491.964" y1="281.963" x2="218.477" y2="281.963" gradientUnits="userSpaceOnUse">
<stop offset="0.02" stop-color="#D8CFE4"/>
<stop offset="1" stop-color="white"/>
</linearGradient>
<linearGradient id="paint13_linear_2_275" x1="527.122" y1="309.377" x2="181.713" y2="309.377" gradientUnits="userSpaceOnUse">
<stop offset="0.02" stop-color="#D8CFE4"/>
<stop offset="1" stop-color="white"/>
</linearGradient>
<linearGradient id="paint14_linear_2_275" x1="55.4865" y1="325.253" x2="156.97" y2="325.253" gradientUnits="userSpaceOnUse">
<stop stop-color="#FF6D27"/>
<stop offset="1" stop-color="#FF3347"/>
</linearGradient>
<linearGradient id="paint15_linear_2_275" x1="410.138" y1="129.877" x2="440.912" y2="131.453" gradientUnits="userSpaceOnUse">
<stop stop-color="#FF6D27"/>
<stop offset="1" stop-color="#FF3347"/>
</linearGradient>
<linearGradient id="paint16_linear_2_275" x1="554.216" y1="251.909" x2="452.733" y2="251.909" gradientUnits="userSpaceOnUse">
<stop stop-color="#FF6D27"/>
<stop offset="1" stop-color="#FF3347"/>
</linearGradient>
<linearGradient id="paint17_linear_2_275" x1="363.724" y1="306.016" x2="363.724" y2="269.392" gradientUnits="userSpaceOnUse">
<stop stop-color="#570E33"/>
<stop offset="1" stop-color="#842F40"/>
</linearGradient>
<linearGradient id="paint18_linear_2_275" x1="364.269" y1="263.174" x2="364.269" y2="213.163" gradientUnits="userSpaceOnUse">
<stop stop-color="#4B3272"/>
<stop offset="0.99" stop-color="#432160"/>
</linearGradient>
<linearGradient id="paint19_linear_2_275" x1="324.441" y1="371.987" x2="324.441" y2="352.327" gradientUnits="userSpaceOnUse">
<stop stop-color="#F4867C"/>
<stop offset="0.98" stop-color="#FF9F68"/>
</linearGradient>
<linearGradient id="paint20_linear_2_275" x1="324.264" y1="412.896" x2="324.264" y2="367.007" gradientUnits="userSpaceOnUse">
<stop stop-color="#570E33"/>
<stop offset="1" stop-color="#842F40"/>
</linearGradient>
<linearGradient id="paint21_linear_2_275" x1="347.589" y1="361.103" x2="347.589" y2="176.334" gradientUnits="userSpaceOnUse">
<stop stop-color="#543C79"/>
<stop offset="0.99" stop-color="#432160"/>
</linearGradient>
<linearGradient id="paint22_linear_2_275" x1="318.817" y1="278.194" x2="386.586" y2="278.194" gradientUnits="userSpaceOnUse">
<stop offset="0.01" stop-color="#BE6888"/>
<stop offset="1" stop-color="#8E81F4"/>
</linearGradient>
<linearGradient id="paint23_linear_2_275" x1="410.864" y1="208.102" x2="410.864" y2="178.837" gradientUnits="userSpaceOnUse">
<stop stop-color="#F4867C"/>
<stop offset="0.98" stop-color="#FF9F68"/>
</linearGradient>
<linearGradient id="paint24_linear_2_275" x1="408.4" y1="186.756" x2="408.4" y2="178.742" gradientUnits="userSpaceOnUse">
<stop offset="0.02" stop-color="#E1DBEB"/>
<stop offset="0.17" stop-color="#E6E1F1"/>
<stop offset="0.56" stop-color="#EFECFA"/>
<stop offset="1" stop-color="#F3F0FE"/>
</linearGradient>
<radialGradient id="paint25_radial_2_275" cx="0" cy="0" r="1" gradientUnits="userSpaceOnUse" gradientTransform="translate(324.155 124.064) scale(16.1628 16.149)">
<stop stop-color="#4B3272"/>
<stop offset="0.99" stop-color="#432160"/>
</radialGradient>
<linearGradient id="paint26_linear_2_275" x1="348.297" y1="201.394" x2="348.297" y2="171.817" gradientUnits="userSpaceOnUse">
<stop offset="0.02" stop-color="#E1DBEB"/>
<stop offset="0.17" stop-color="#E6E1F1"/>
<stop offset="0.56" stop-color="#EFECFA"/>
<stop offset="1" stop-color="#F3F0FE"/>
</linearGradient>
<linearGradient id="paint27_linear_2_275" x1="344.334" y1="200.605" x2="349.323" y2="172.279" gradientUnits="userSpaceOnUse">
<stop offset="0.01" stop-color="#BE6888"/>
<stop offset="1" stop-color="#8E81F4"/>
</linearGradient>
<radialGradient id="paint28_radial_2_275" cx="0" cy="0" r="1" gradientUnits="userSpaceOnUse" gradientTransform="translate(335.674 123.465) scale(47.1811 47.141)">
<stop stop-color="#543C79"/>
<stop offset="0.99" stop-color="#432160"/>
</radialGradient>
<linearGradient id="paint29_linear_2_275" x1="410.864" y1="208.102" x2="410.864" y2="179.749" gradientUnits="userSpaceOnUse">
<stop stop-color="#B060F4"/>
<stop offset="1" stop-color="#FFEADB"/>
</linearGradient>
<linearGradient id="paint30_linear_2_275" x1="410.51" y1="208.673" x2="410.51" y2="198.034" gradientUnits="userSpaceOnUse">
<stop stop-color="#F4867C"/>
<stop offset="0.98" stop-color="#FF9F68"/>
</linearGradient>
<linearGradient id="paint31_linear_2_275" x1="408.209" y1="208.673" x2="408.209" y2="198.034" gradientUnits="userSpaceOnUse">
<stop offset="0.02" stop-color="#D1A1D6"/>
<stop offset="0.99" stop-color="#BD89C4"/>
</linearGradient>
<linearGradient id="paint32_linear_2_275" x1="339.746" y1="178.647" x2="351.368" y2="112.714" gradientUnits="userSpaceOnUse">
<stop stop-color="#B060F4"/>
<stop offset="1" stop-color="#FFEADB"/>
</linearGradient>
<linearGradient id="paint33_linear_2_275" x1="439.037" y1="275.718" x2="439.037" y2="199.109" gradientUnits="userSpaceOnUse">
<stop stop-color="#792244"/>
<stop offset="1" stop-color="#893100"/>
</linearGradient>
<linearGradient id="paint34_linear_2_275" x1="330.609" y1="121.357" x2="370.777" y2="121.357" gradientUnits="userSpaceOnUse">
<stop offset="0.02" stop-color="#D1A1D6"/>
<stop offset="0.99" stop-color="#BD89C4"/>
</linearGradient>
<linearGradient id="paint35_linear_2_275" x1="338.316" y1="171.709" x2="352.603" y2="90.6599" gradientUnits="userSpaceOnUse">
<stop offset="0.02" stop-color="#D1A1D6"/>
<stop offset="0.99" stop-color="#BD89C4"/>
</linearGradient>
<linearGradient id="paint36_linear_2_275" x1="374.999" y1="182.252" x2="390.074" y2="96.7002" gradientUnits="userSpaceOnUse">
<stop offset="0.02" stop-color="#D1A1D6"/>
<stop offset="0.99" stop-color="#BD89C4"/>
</linearGradient>
<linearGradient id="paint37_linear_2_275" x1="338.506" y1="161.831" x2="338.506" y2="53.1553" gradientUnits="userSpaceOnUse">
<stop stop-color="#721D3B"/>
<stop offset="1" stop-color="#A63624"/>
</linearGradient>
<linearGradient id="paint38_linear_2_275" x1="331.331" y1="164.729" x2="350.974" y2="53.2448" gradientUnits="userSpaceOnUse">
<stop stop-color="#8E2A3B"/>
<stop offset="1" stop-color="#BA4324"/>
</linearGradient>
<linearGradient id="paint39_linear_2_275" x1="316.924" y1="150.594" x2="330.179" y2="75.3139" gradientUnits="userSpaceOnUse">
<stop stop-color="#8E2A3B"/>
<stop offset="1" stop-color="#BA4324"/>
</linearGradient>
<linearGradient id="paint40_linear_2_275" x1="320.832" y1="151.124" x2="336.601" y2="61.5994" gradientUnits="userSpaceOnUse">
<stop stop-color="#8E2A3B"/>
<stop offset="1" stop-color="#BA4324"/>
</linearGradient>
<linearGradient id="paint41_linear_2_275" x1="363.724" y1="97.276" x2="369.896" y2="62.2552" gradientUnits="userSpaceOnUse">
<stop offset="0.01" stop-color="#BE6888"/>
<stop offset="1" stop-color="#8E81F4"/>
</linearGradient>
<linearGradient id="paint42_linear_2_275" x1="334.408" y1="142.24" x2="338.554" y2="118.689" gradientUnits="userSpaceOnUse">
<stop offset="0.01" stop-color="#BE6888"/>
<stop offset="1" stop-color="#8E81F4"/>
</linearGradient>
<linearGradient id="paint43_linear_2_275" x1="328.117" y1="164.171" x2="339.305" y2="100.66" gradientUnits="userSpaceOnUse">
<stop offset="0.01" stop-color="#BE6888"/>
<stop offset="1" stop-color="#8E81F4"/>
</linearGradient>
<linearGradient id="paint44_linear_2_275" x1="357.461" y1="58.7747" x2="357.488" y2="58.5565" gradientUnits="userSpaceOnUse">
<stop offset="0.01" stop-color="#BE6888"/>
<stop offset="1" stop-color="#8E81F4"/>
</linearGradient>
<linearGradient id="paint45_linear_2_275" x1="344.062" y1="108.024" x2="353.279" y2="55.6967" gradientUnits="userSpaceOnUse">
<stop offset="0.01" stop-color="#BE6888"/>
<stop offset="1" stop-color="#8E81F4"/>
</linearGradient>
<linearGradient id="paint46_linear_2_275" x1="321.254" y1="153.655" x2="321.254" y2="65.9711" gradientUnits="userSpaceOnUse">
<stop stop-color="#721D3B"/>
<stop offset="1" stop-color="#A63624"/>
</linearGradient>
<linearGradient id="paint47_linear_2_275" x1="346.608" y1="146.431" x2="346.608" y2="97.8611" gradientUnits="userSpaceOnUse">
<stop stop-color="#721D3B"/>
<stop offset="1" stop-color="#A63624"/>
</linearGradient>
<linearGradient id="paint48_linear_2_275" x1="354.37" y1="104.174" x2="354.37" y2="75.8619" gradientUnits="userSpaceOnUse">
<stop offset="0.01" stop-color="#BE6888"/>
<stop offset="1" stop-color="#8E81F4"/>
</linearGradient>
<linearGradient id="paint49_linear_2_275" x1="318.817" y1="216.373" x2="386.586" y2="216.373" gradientUnits="userSpaceOnUse">
<stop offset="0.02" stop-color="#D1A1D6"/>
<stop offset="0.99" stop-color="#BD89C4"/>
</linearGradient>
<linearGradient id="paint50_linear_2_275" x1="311.573" y1="263.637" x2="321.254" y2="263.637" gradientUnits="userSpaceOnUse">
<stop offset="0.02" stop-color="#D1A1D6"/>
<stop offset="0.99" stop-color="#BD89C4"/>
</linearGradient>
<linearGradient id="paint51_linear_2_275" x1="310.92" y1="348.083" x2="323.733" y2="348.083" gradientUnits="userSpaceOnUse">
<stop offset="0.01" stop-color="#BE6888"/>
<stop offset="1" stop-color="#8E81F4"/>
</linearGradient>
<linearGradient id="paint52_linear_2_275" x1="437.131" y1="250.059" x2="461.667" y2="250.059" gradientUnits="userSpaceOnUse">
<stop offset="0.01" stop-color="#BE6888"/>
<stop offset="1" stop-color="#8E81F4"/>
</linearGradient>
<linearGradient id="paint53_linear_2_275" x1="426.237" y1="282.017" x2="437.131" y2="282.017" gradientUnits="userSpaceOnUse">
<stop offset="0.01" stop-color="#BE6888"/>
<stop offset="1" stop-color="#8E81F4"/>
</linearGradient>
<linearGradient id="paint54_linear_2_275" x1="362.798" y1="129.941" x2="373.12" y2="129.941" gradientUnits="userSpaceOnUse">
<stop offset="0.02" stop-color="#D1A1D6"/>
<stop offset="0.99" stop-color="#BD89C4"/>
</linearGradient>
<linearGradient id="paint55_linear_2_275" x1="334.517" y1="159.831" x2="349.672" y2="159.831" gradientUnits="userSpaceOnUse">
<stop offset="0.02" stop-color="#D1A1D6"/>
<stop offset="0.99" stop-color="#BD89C4"/>
</linearGradient>
<linearGradient id="paint56_linear_2_275" x1="397.561" y1="162.267" x2="415.344" y2="162.267" gradientUnits="userSpaceOnUse">
<stop stop-color="#4AF4FF"/>
<stop offset="0.09" stop-color="#46E9F4"/>
<stop offset="0.23" stop-color="#3ECFD8"/>
<stop offset="0.43" stop-color="#31A3AA"/>
<stop offset="0.66" stop-color="#1F666B"/>
<stop offset="0.92" stop-color="#081A1B"/>
<stop offset="1"/>
</linearGradient>
<linearGradient id="paint57_linear_2_275" x1="328.349" y1="350.885" x2="337.552" y2="298.626" gradientUnits="userSpaceOnUse">
<stop stop-color="#4AF4FF"/>
<stop offset="0.09" stop-color="#46E9F4"/>
<stop offset="0.23" stop-color="#3ECFD8"/>
<stop offset="0.43" stop-color="#31A3AA"/>
<stop offset="0.66" stop-color="#1F666B"/>
<stop offset="0.92" stop-color="#081A1B"/>
<stop offset="1"/>
</linearGradient>
<linearGradient id="paint58_linear_2_275" x1="329.261" y1="411.781" x2="336.072" y2="373.073" gradientUnits="userSpaceOnUse">
<stop stop-color="#984072"/>
<stop offset="0.15" stop-color="#AB4373"/>
<stop offset="0.53" stop-color="#D84A76"/>
<stop offset="0.83" stop-color="#F44F78"/>
<stop offset="1" stop-color="#FF5179"/>
</linearGradient>
<linearGradient id="paint59_linear_2_275" x1="348.705" y1="73.1001" x2="368.027" y2="73.1001" gradientUnits="userSpaceOnUse">
<stop/>
<stop offset="0.08" stop-color="#1B080D"/>
<stop offset="0.34" stop-color="#6B2232"/>
<stop offset="0.57" stop-color="#AA3651"/>
<stop offset="0.77" stop-color="#D84466"/>
<stop offset="0.91" stop-color="#F44D74"/>
<stop offset="1" stop-color="#FF5179"/>
</linearGradient>
<linearGradient id="paint60_linear_2_275" x1="313.575" y1="390.462" x2="330.241" y2="390.462" gradientUnits="userSpaceOnUse">
<stop offset="0.02" stop-color="#D1A1D6"/>
<stop offset="0.99" stop-color="#BD89C4"/>
</linearGradient>
<linearGradient id="paint61_linear_2_275" x1="320.574" y1="412.897" x2="320.574" y2="379.864" gradientUnits="userSpaceOnUse">
<stop stop-color="#6D2822"/>
<stop offset="0.99" stop-color="#570E33"/>
</linearGradient>
<linearGradient id="paint62_linear_2_275" x1="357.066" y1="288.112" x2="371.172" y2="288.112" gradientUnits="userSpaceOnUse">
<stop offset="0.02" stop-color="#D1A1D6"/>
<stop offset="0.99" stop-color="#BD89C4"/>
</linearGradient>
<linearGradient id="paint63_linear_2_275" x1="365.168" y1="305.812" x2="365.168" y2="279.065" gradientUnits="userSpaceOnUse">
<stop stop-color="#6D2822"/>
<stop offset="0.99" stop-color="#570E33"/>
</linearGradient>
<linearGradient id="paint64_linear_2_275" x1="370.301" y1="250.726" x2="375.385" y2="221.882" gradientUnits="userSpaceOnUse">
<stop stop-color="#4AF4FF"/>
<stop offset="0.09" stop-color="#46E9F4"/>
<stop offset="0.23" stop-color="#3ECFD8"/>
<stop offset="0.43" stop-color="#31A3AA"/>
<stop offset="0.66" stop-color="#1F666B"/>
<stop offset="0.92" stop-color="#081A1B"/>
<stop offset="1"/>
</linearGradient>
<linearGradient id="paint65_linear_2_275" x1="438.111" y1="265.229" x2="448.171" y2="208.18" gradientUnits="userSpaceOnUse">
<stop stop-color="#FF5179"/>
<stop offset="0.09" stop-color="#F44D74"/>
<stop offset="0.23" stop-color="#D84466"/>
<stop offset="0.43" stop-color="#AA3651"/>
<stop offset="0.66" stop-color="#6B2232"/>
<stop offset="0.92" stop-color="#1B080D"/>
<stop offset="1"/>
</linearGradient>
<linearGradient id="paint66_linear_2_275" x1="308.292" y1="350.246" x2="317.984" y2="295.238" gradientUnits="userSpaceOnUse">
<stop stop-color="#FF5179"/>
<stop offset="0.09" stop-color="#F44D74"/>
<stop offset="0.23" stop-color="#D84466"/>
<stop offset="0.43" stop-color="#AA3651"/>
<stop offset="0.66" stop-color="#6B2232"/>
<stop offset="0.92" stop-color="#1B080D"/>
<stop offset="1"/>
</linearGradient>
<linearGradient id="paint67_linear_2_275" x1="350.435" y1="255.787" x2="357.272" y2="216.916" gradientUnits="userSpaceOnUse">
<stop stop-color="#FF5179"/>
<stop offset="0.09" stop-color="#F44D74"/>
<stop offset="0.23" stop-color="#D84466"/>
<stop offset="0.43" stop-color="#AA3651"/>
<stop offset="0.66" stop-color="#6B2232"/>
<stop offset="0.92" stop-color="#1B080D"/>
<stop offset="1"/>
</linearGradient>
<clipPath id="clip0_2_275">
<rect width="672" height="476.553" fill="white"/>
</clipPath>
</defs>
</svg>
