<svg width="34" height="34" viewBox="0 0 34 34" fill="none" xmlns="http://www.w3.org/2000/svg">
<path d="M3.03012 22.4677L5.89242 20.8153C6.04746 20.7258 6.22939 20.6947 6.40536 20.7277L12.0371 21.7817C12.4999 21.8683 12.9272 21.512 12.9251 21.0411L12.9031 16.1067C12.9025 15.9726 12.9379 15.8408 13.0055 15.7251L15.8476 10.8593C15.9955 10.6061 15.9823 10.2899 15.8137 10.0499L11.0284 3.23853M27.5003 6.28858C19.2503 10.2501 23.7501 15.5001 25.2503 16.2501C28.0659 17.6576 31.9815 17.75 31.9815 17.75C31.9937 17.5015 32 17.2515 32 17C32 8.71573 25.2843 2 17 2C8.71573 2 2 8.71573 2 17C2 25.2843 8.71573 32 17 32C17.2515 32 17.5015 31.9938 17.75 31.9816M24.1367 31.9097L19.3865 19.3865L31.9097 24.1367L26.3565 26.3565L24.1367 31.9097Z" stroke="#9774DC" stroke-width="3" stroke-linecap="round" stroke-linejoin="round"/>
</svg>
