<svg width="200" height="36" viewBox="0 0 200 36" fill="none" xmlns="http://www.w3.org/2000/svg">
<path d="M27.5052 28.1143V11.7383H32.0406V16.365L31.4014 15.0257C31.8884 13.869 32.6697 12.9964 33.7452 12.408C34.8207 11.7992 36.1296 11.4948 37.6718 11.4948V15.878C37.4689 15.8577 37.2862 15.8475 37.1239 15.8475C36.9615 15.8272 36.7891 15.8171 36.6064 15.8171C35.3077 15.8171 34.2525 16.1925 33.4408 16.9433C32.6494 17.6739 32.2537 18.8204 32.2537 20.3829V28.1143H27.5052Z" fill="#22252B"/>
<path d="M47.5599 28.3578C45.8147 28.3578 44.2623 27.9926 42.9027 27.2621C41.5634 26.5315 40.4981 25.5372 39.7067 24.2791C38.9355 23.0006 38.55 21.5497 38.55 19.9263C38.55 18.2826 38.9355 16.8317 39.7067 15.5736C40.4981 14.2952 41.5634 13.3008 42.9027 12.5906C44.2623 11.8601 45.8147 11.4948 47.5599 11.4948C49.2847 11.4948 50.8269 11.8601 52.1865 12.5906C53.5461 13.3008 54.6115 14.285 55.3826 15.5431C56.1537 16.8013 56.5393 18.2623 56.5393 19.9263C56.5393 21.5497 56.1537 23.0006 55.3826 24.2791C54.6115 25.5372 53.5461 26.5315 52.1865 27.2621C50.8269 27.9926 49.2847 28.3578 47.5599 28.3578ZM47.5599 24.4617C48.3513 24.4617 49.0615 24.2791 49.6906 23.9138C50.3196 23.5485 50.8168 23.0311 51.1821 22.3614C51.5473 21.6715 51.73 20.8598 51.73 19.9263C51.73 18.9726 51.5473 18.1609 51.1821 17.4912C50.8168 16.8216 50.3196 16.3041 49.6906 15.9389C49.0615 15.5736 48.3513 15.391 47.5599 15.391C46.7684 15.391 46.0582 15.5736 45.4291 15.9389C44.8001 16.3041 44.2928 16.8216 43.9072 17.4912C43.5419 18.1609 43.3593 18.9726 43.3593 19.9263C43.3593 20.8598 43.5419 21.6715 43.9072 22.3614C44.2928 23.0311 44.8001 23.5485 45.4291 23.9138C46.0582 24.2791 46.7684 24.4617 47.5599 24.4617Z" fill="#22252B"/>
<path d="M62.4025 28.1143L56.4974 11.7383H60.9719L65.8726 25.8314H63.7418L68.8555 11.7383H72.8735L77.835 25.8314H75.7043L80.7571 11.7383H84.9576L79.0221 28.1143H74.4258L70.0731 16.0302H71.4733L66.9683 28.1143H62.4025Z" fill="#22252B"/>
<path d="M93.6988 28.3578C91.771 28.3578 90.2693 27.8708 89.1938 26.8968C88.1183 25.9025 87.5806 24.4313 87.5806 22.4832V8.1161H92.329V22.4223C92.329 23.1122 92.5117 23.65 92.8769 24.0356C93.2422 24.4008 93.7394 24.5834 94.3684 24.5834C95.1193 24.5834 95.7585 24.3805 96.2861 23.9747L97.5645 27.3229C97.0775 27.6679 96.489 27.9317 95.799 28.1143C95.1294 28.2767 94.4293 28.3578 93.6988 28.3578ZM85.0542 15.7562V12.1036H96.4078V15.7562H85.0542Z" fill="#22252B"/>
<path d="M109.575 11.4948C110.873 11.4948 112.03 11.7586 113.045 12.2862C114.08 12.7935 114.891 13.5849 115.48 14.6604C116.068 15.7156 116.363 17.0752 116.363 18.7392V28.1143H111.614V19.4697C111.614 18.1507 111.32 17.1767 110.731 16.5476C110.163 15.9186 109.351 15.604 108.296 15.604C107.545 15.604 106.866 15.7664 106.257 16.091C105.668 16.3954 105.202 16.8723 104.857 17.5217C104.532 18.171 104.37 19.003 104.37 20.0176V28.1143H99.6213V5.52881H104.37V16.2737L103.304 14.9039C103.893 13.8081 104.735 12.966 105.831 12.3775C106.927 11.789 108.175 11.4948 109.575 11.4948Z" fill="#22252B"/>
<path d="M123.505 28.1143L117.6 11.7383H122.074L126.975 25.8314H124.844L129.958 11.7383H133.976L138.937 25.8314H136.806L141.859 11.7383H146.06L140.124 28.1143H135.528L131.175 16.0302H132.575L128.071 28.1143H123.505Z" fill="#22252B"/>
<path d="M157.168 28.1143V24.9183L156.864 24.2182V18.4957C156.864 17.4811 156.549 16.6897 155.92 16.1215C155.312 15.5533 154.368 15.2692 153.089 15.2692C152.217 15.2692 151.354 15.4112 150.502 15.6953C149.67 15.9591 148.96 16.3244 148.371 16.7911L146.667 13.4733C147.56 12.8442 148.635 12.3572 149.893 12.0123C151.152 11.6673 152.43 11.4948 153.729 11.4948C156.225 11.4948 158.163 12.0833 159.542 13.2602C160.922 14.4372 161.612 16.2737 161.612 18.7697V28.1143H157.168ZM152.176 28.3578C150.898 28.3578 149.802 28.1448 148.889 27.7186C147.976 27.2722 147.276 26.6736 146.789 25.9228C146.302 25.1719 146.058 24.3298 146.058 23.3963C146.058 22.4223 146.291 21.57 146.758 20.8395C147.245 20.109 148.006 19.5408 149.041 19.1349C150.076 18.7088 151.425 18.4957 153.089 18.4957H157.442V21.2656H153.607C152.491 21.2656 151.72 21.4483 151.294 21.8135C150.888 22.1788 150.685 22.6354 150.685 23.1833C150.685 23.792 150.918 24.2791 151.385 24.6443C151.872 24.9893 152.531 25.1618 153.363 25.1618C154.155 25.1618 154.865 24.9792 155.494 24.6139C156.123 24.2283 156.58 23.6703 156.864 22.9398L157.594 25.1313C157.249 26.1866 156.62 26.9881 155.707 27.536C154.794 28.0839 153.617 28.3578 152.176 28.3578Z" fill="#22252B"/>
<path d="M165.301 28.1143V11.7383H169.837V16.365L169.197 15.0257C169.684 13.869 170.466 12.9964 171.541 12.408C172.617 11.7992 173.925 11.4948 175.468 11.4948V15.878C175.265 15.8577 175.082 15.8475 174.92 15.8475C174.757 15.8272 174.585 15.8171 174.402 15.8171C173.104 15.8171 172.048 16.1925 171.237 16.9433C170.445 17.6739 170.05 18.8204 170.05 20.3829V28.1143H165.301Z" fill="#22252B"/>
<path d="M185.691 28.3578C183.824 28.3578 182.18 27.9926 180.759 27.2621C179.359 26.5315 178.274 25.5372 177.503 24.2791C176.731 23.0006 176.346 21.5497 176.346 19.9263C176.346 18.2826 176.721 16.8317 177.472 15.5736C178.243 14.2952 179.288 13.3008 180.607 12.5906C181.926 11.8601 183.418 11.4948 185.082 11.4948C186.685 11.4948 188.126 11.8398 189.404 12.5297C190.703 13.1994 191.728 14.1734 192.478 15.4518C193.229 16.71 193.605 18.2218 193.605 19.9872C193.605 20.1698 193.594 20.3829 193.574 20.6264C193.554 20.8496 193.534 21.0627 193.513 21.2656H180.212V18.4957H191.017L189.191 19.3176C189.191 18.4653 189.019 17.7246 188.674 17.0955C188.329 16.4665 187.852 15.9794 187.243 15.6345C186.634 15.2692 185.924 15.0866 185.112 15.0866C184.301 15.0866 183.58 15.2692 182.951 15.6345C182.342 15.9794 181.865 16.4766 181.52 17.126C181.175 17.755 181.003 18.5059 181.003 19.3784V20.109C181.003 21.0018 181.196 21.7932 181.581 22.4832C181.987 23.1528 182.545 23.6703 183.255 24.0356C183.986 24.3805 184.838 24.553 185.812 24.553C186.685 24.553 187.446 24.4211 188.095 24.1573C188.765 23.8935 189.374 23.4978 189.922 22.9702L192.448 25.7097C191.697 26.562 190.754 27.2215 189.617 27.6882C188.481 28.1346 187.172 28.3578 185.691 28.3578Z" fill="#22252B"/>
<path d="M188.876 5.42363V1.02274H187.14V0H191.867V1.02274H190.131V5.42363H188.876Z" fill="#22252B"/>
<path d="M192.929 5.42363V0H193.968L196.277 3.82753H195.726L197.997 0H199.027L199.043 5.42363H197.865L197.857 1.80529H198.074L196.261 4.85027H195.695L193.844 1.80529H194.107V5.42363H192.929Z" fill="#22252B"/>
<path d="M11.725 7.09593C13.221 6.88902 14.7452 7.0598 16.158 7.59266C17.5709 8.12552 18.8275 9.00347 19.8129 10.1462L22.7903 7.58711C21.3765 5.94748 19.5736 4.68782 17.5464 3.92328C15.5192 3.15874 13.3324 2.9137 11.1859 3.21058C9.03937 3.50745 7.00164 4.33676 5.25895 5.6227C3.51626 6.90864 2.12422 8.61018 1.21007 10.5718C0.295917 12.5334 -0.111174 14.6925 0.0260067 16.8517C0.163187 19.0108 0.840264 21.1013 1.99534 22.9318C3.15042 24.7624 4.74665 26.2747 6.63812 27.3305C7.28184 27.6898 7.95278 27.9923 8.64326 28.2361V23.9552C8.61387 23.9392 8.58455 23.9231 8.55532 23.9068C7.23702 23.1709 6.1245 22.1169 5.31945 20.841C4.51439 19.5652 4.04249 18.1082 3.94688 16.6033C3.85127 15.0985 4.135 13.5936 4.77213 12.2265C5.40927 10.8593 6.37948 9.67337 7.59408 8.77711C8.80868 7.88085 10.2289 7.30284 11.725 7.09593Z" fill="#22252B"/>
<path fill-rule="evenodd" clip-rule="evenodd" d="M23.9725 18.7807L15.3302 18.8056L15.3189 14.8762L23.9612 14.8513L23.9725 18.7807Z" fill="#22252B"/>
<path d="M20.4327 20.7703C20.4327 20.5532 20.6086 20.3773 20.8256 20.3773H23.5762C23.7932 20.3773 23.9691 20.5532 23.9691 20.7703V27.8431C23.9691 28.0601 23.7932 28.236 23.5762 28.236H20.8256C20.6086 28.236 20.4327 28.0601 20.4327 27.8431V20.7703Z" fill="#6941C6"/>
<path d="M15.3245 22.7349C15.3245 22.5179 15.5005 22.342 15.7175 22.342H18.468C18.685 22.342 18.861 22.5179 18.861 22.7349V27.8431C18.861 28.0601 18.685 28.2361 18.468 28.2361H15.7175C15.5005 28.2361 15.3245 28.0601 15.3245 27.8431V22.7349Z" fill="#A47FE1"/>
<path d="M10.2163 24.6996C10.2163 24.4826 10.3923 24.3067 10.6093 24.3067H13.3598C13.5769 24.3067 13.7528 24.4826 13.7528 24.6996V27.8431C13.7528 28.0601 13.5769 28.2361 13.3598 28.2361H10.6093C10.3923 28.2361 10.2163 28.0601 10.2163 27.8431V24.6996Z" fill="#D7BBFB"/>
</svg>
