<svg width="36" height="36" viewBox="0 0 36 36" fill="none" xmlns="http://www.w3.org/2000/svg">
<path d="M31.5 24V10.8C31.5 9.11984 31.5 8.27976 31.173 7.63803C30.8854 7.07354 30.4265 6.6146 29.862 6.32698C29.2202 6 28.3802 6 26.7 6H9.3C7.61984 6 6.77976 6 6.13803 6.32698C5.57354 6.6146 5.1146 7.07354 4.82698 7.63803C4.5 8.27976 4.5 9.11984 4.5 10.8V24M7 30H29C29.93 30 30.395 30 30.7765 29.8978C31.8117 29.6204 32.6204 28.8117 32.8978 27.7765C33 27.395 33 26.93 33 26C33 25.535 33 25.3025 32.9489 25.1118C32.8102 24.5941 32.4059 24.1898 31.8882 24.0511C31.6975 24 31.465 24 31 24H5C4.53501 24 4.30252 24 4.11177 24.0511C3.59413 24.1898 3.18981 24.5941 3.05111 25.1118C3 25.3025 3 25.535 3 26C3 26.93 3 27.395 3.10222 27.7765C3.37962 28.8117 4.18827 29.6204 5.22354 29.8978C5.60504 30 6.07003 30 7 30Z" stroke="#9774DC" stroke-width="3" stroke-linecap="round" stroke-linejoin="round"/>
</svg>
