<svg width="36" height="36" viewBox="0 0 36 36" fill="none" xmlns="http://www.w3.org/2000/svg">
<path d="M7.4999 19.5C7.4999 14.5294 11.5293 10.5 16.4999 10.5M7.4999 19.5C7.4999 21.9726 8.49698 24.2123 10.111 25.8389C10.2667 25.9958 10.3445 26.0743 10.3904 26.1497C10.4343 26.2217 10.4598 26.2836 10.4794 26.3656C10.4999 26.4515 10.4999 26.5492 10.4999 26.7447V30.3C10.4999 30.72 10.4999 30.9301 10.5816 31.0905C10.6535 31.2316 10.7683 31.3464 10.9094 31.4183C11.0698 31.5 11.2799 31.5 11.6999 31.5H14.5499C14.9699 31.5 15.18 31.5 15.3404 31.4183C15.4815 31.3464 15.5962 31.2316 15.6682 31.0905C15.7499 30.9301 15.7499 30.72 15.7499 30.3V29.7C15.7499 29.28 15.7499 29.0699 15.8316 28.9095C15.9035 28.7684 16.0183 28.6536 16.1594 28.5817C16.3198 28.5 16.5299 28.5 16.9499 28.5H19.0499C19.4699 28.5 19.68 28.5 19.8404 28.5817C19.9815 28.6536 20.0962 28.7684 20.1682 28.9095C20.2499 29.0699 20.2499 29.28 20.2499 29.7V30.3C20.2499 30.72 20.2499 30.9301 20.3316 31.0905C20.4035 31.2316 20.5183 31.3464 20.6594 31.4183C20.8198 31.5 21.0299 31.5 21.4499 31.5H24.3C24.72 31.5 24.9301 31.5 25.0905 31.4183C25.2316 31.3464 25.3464 31.2316 25.4183 31.0905C25.5 30.9301 25.5 30.72 25.5 30.3V28.8365C25.5 28.5334 25.5 28.3819 25.5431 28.2602C25.5845 28.1436 25.6366 28.062 25.7249 27.9754C25.8171 27.885 25.9733 27.8125 26.2855 27.6675C27.7588 26.9835 29.0161 25.9126 29.9267 24.5852C30.0868 24.3518 30.1669 24.2351 30.2524 24.1662C30.3341 24.1003 30.4075 24.0616 30.5081 24.0315C30.6133 24 30.7383 24 30.9881 24H31.8C32.22 24 32.4301 24 32.5905 23.9183C32.7316 23.8464 32.8463 23.7316 32.9183 23.5905C33 23.4301 33 23.22 33 22.8V17.6786C33 17.2787 33 17.0788 32.9257 16.9246C32.852 16.7715 32.7285 16.648 32.5755 16.5743C32.4212 16.5 32.2213 16.5 31.8214 16.5C31.5319 16.5 31.3872 16.5 31.2706 16.4607C31.1449 16.4183 31.0568 16.362 30.9656 16.2657C30.881 16.1763 30.812 16.027 30.6739 15.7282C30.2307 14.7693 29.6237 13.9017 28.8889 13.1611C28.7332 13.0042 28.6554 12.9257 28.6095 12.8503C28.5656 12.7783 28.5401 12.7164 28.5205 12.6344C28.5 12.5485 28.5 12.4508 28.5 12.2553V10.5909C28.5 10.0508 28.5 9.78077 28.3875 9.59926C28.289 9.44026 28.1346 9.32382 27.9547 9.27277C27.7493 9.21449 27.4896 9.28867 26.9703 9.43704L23.4115 10.4538C23.351 10.4711 23.3208 10.4797 23.29 10.4858C23.2627 10.4912 23.2351 10.4951 23.2074 10.4974C23.1762 10.5 23.1445 10.5 23.0811 10.5H16.4999M7.4999 19.5H6C4.34315 19.5 3 18.1569 3 16.5C3 15.3896 3.6033 14.4201 4.5 13.9013M16.4999 10.5H22.4468C22.4819 10.255 22.5 10.0046 22.5 9.75C22.5 6.85051 20.1495 4.5 17.25 4.5C14.3505 4.5 12 6.85051 12 9.75C12 10.3758 12.1095 10.976 12.3104 11.5326C13.5617 10.8732 14.9872 10.5 16.4999 10.5Z" stroke="#9774DC" stroke-width="3" stroke-linecap="round" stroke-linejoin="round"/>
</svg>
