<svg width="34" height="34" viewBox="0 0 34 34" fill="none" xmlns="http://www.w3.org/2000/svg">
<path d="M14.3645 23.471L8 17.105L10.121 14.984L14.3645 19.226L22.8485 10.7405L24.971 12.863L14.3645 23.468V23.471Z" fill="white"/>
<path fill-rule="evenodd" clip-rule="evenodd" d="M0.5 17C0.5 7.8875 7.8875 0.5 17 0.5C26.1125 0.5 33.5 7.8875 33.5 17C33.5 26.1125 26.1125 33.5 17 33.5C7.8875 33.5 0.5 26.1125 0.5 17ZM17 30.5C15.2272 30.5 13.4717 30.1508 11.8338 29.4724C10.1959 28.7939 8.70765 27.7995 7.45406 26.5459C6.20047 25.2923 5.20606 23.8041 4.52763 22.1662C3.84919 20.5283 3.5 18.7728 3.5 17C3.5 15.2272 3.84919 13.4717 4.52763 11.8338C5.20606 10.1959 6.20047 8.70765 7.45406 7.45406C8.70765 6.20047 10.1959 5.20606 11.8338 4.52763C13.4717 3.84919 15.2272 3.5 17 3.5C20.5804 3.5 24.0142 4.92232 26.5459 7.45406C29.0777 9.9858 30.5 13.4196 30.5 17C30.5 20.5804 29.0777 24.0142 26.5459 26.5459C24.0142 29.0777 20.5804 30.5 17 30.5Z" fill="white"/>
</svg>
