<svg width="36" height="30" viewBox="0 0 36 30" fill="none" xmlns="http://www.w3.org/2000/svg">
<path d="M35.9019 7.40751C35.677 6.90142 35.2834 6.45157 34.7773 6.17042L23.6435 0.603516C23.0812 1.39075 22.0128 3.47131 18.0204 3.47131C13.9155 3.47131 12.8471 1.33452 12.341 0.603516L1.20718 6.17042C0.701102 6.45157 0.307483 6.90142 0.138789 7.40751C-0.0861363 7.96982 -0.029905 8.58836 0.251252 9.09445L3.23151 15.055C3.73759 16.1796 5.08715 16.5732 6.09931 16.0671L7.44886 15.4486C7.78625 15.2799 8.12364 15.5048 8.12364 15.8422V26.245C8.12364 27.9882 9.52942 29.394 11.2726 29.394H24.7681C26.5113 29.394 27.9171 27.9882 27.9171 26.245V15.8422C27.9171 15.5048 28.2545 15.2799 28.5356 15.4486L29.8852 16.0671C30.9536 16.6294 32.2469 16.1796 32.8092 15.1112L35.7895 9.09445C36.0144 8.58836 36.0706 7.96982 35.9019 7.40751ZM30.6162 13.4243L26.455 11.4562C25.8927 11.175 25.218 11.6249 25.218 12.2996V26.245C25.218 26.5262 24.993 26.6949 24.7681 26.6949H11.2726C10.9914 26.6949 10.8227 26.5262 10.8227 26.245V12.2996C10.8227 11.6249 10.0917 11.175 9.52942 11.4562L5.42453 13.4243L2.89412 8.36344L11.61 4.03363C13.1282 5.38318 15.4337 6.17042 18.0204 6.17042C20.5508 6.17042 22.8562 5.38318 24.3745 4.03363L33.0903 8.36344L30.6162 13.4243Z" fill="#9774DC"/>
</svg>
